<mxfile host="Electron" agent="Mozilla/5.0 (Windows NT 10.0; Win64; x64) AppleWebKit/537.36 (KHTML, like Gecko) draw.io/27.0.9 Chrome/134.0.6998.205 Electron/35.4.0 Safari/537.36" version="27.0.9" pages="3">
  <diagram name="Class_diagram" id="c4acf3e9-155e-7222-9cf6-157b1a14988f">
    <mxGraphModel dx="3257" dy="963" grid="1" gridSize="10" guides="1" tooltips="1" connect="1" arrows="1" fold="1" page="1" pageScale="1" pageWidth="827" pageHeight="1169" background="none" math="0" shadow="0">
      <root>
        <mxCell id="0" />
        <mxCell id="1" parent="0" />
        <mxCell id="Z0m8vk_GXYHYSWQ5mbi0-5" value="Glider" style="swimlane;fontStyle=0;childLayout=stackLayout;horizontal=1;startSize=26;fillColor=none;horizontalStack=0;resizeParent=1;resizeParentMax=0;resizeLast=0;collapsible=1;marginBottom=0;whiteSpace=wrap;html=1;" parent="1" vertex="1">
          <mxGeometry x="-620" y="70" width="150" height="230" as="geometry">
            <mxRectangle x="60" y="112" width="90" height="30" as="alternateBounds" />
          </mxGeometry>
        </mxCell>
        <mxCell id="Z0m8vk_GXYHYSWQ5mbi0-6" value="&lt;div style=&quot;text-align: center;&quot;&gt;&lt;span style=&quot;background-color: initial;&quot;&gt;&amp;lt;&amp;lt;inputs&amp;gt;&amp;gt;&lt;/span&gt;&lt;/div&gt;occupants = 1&lt;br&gt;fai_class = &quot;std&quot;&lt;div&gt;engine_type = &quot;No engine&quot;&lt;/div&gt;" style="text;strokeColor=none;fillColor=none;align=left;verticalAlign=top;spacingLeft=4;spacingRight=4;overflow=hidden;rotatable=0;points=[[0,0.5],[1,0.5]];portConstraint=eastwest;whiteSpace=wrap;html=1;collapsible=1;marginBottom=0;" parent="Z0m8vk_GXYHYSWQ5mbi0-5" vertex="1" collapsed="1">
          <mxGeometry y="26" width="150" height="84" as="geometry">
            <mxRectangle y="26" width="150" height="20" as="alternateBounds" />
          </mxGeometry>
        </mxCell>
        <mxCell id="Z0m8vk_GXYHYSWQ5mbi0-7" value="" style="line;strokeWidth=1;fillColor=none;align=left;verticalAlign=middle;spacingTop=-1;spacingLeft=3;spacingRight=3;rotatable=0;labelPosition=right;points=[];portConstraint=eastwest;strokeColor=inherit;" parent="Z0m8vk_GXYHYSWQ5mbi0-5" vertex="1">
          <mxGeometry y="110" width="150" as="geometry" />
        </mxCell>
        <mxCell id="Z0m8vk_GXYHYSWQ5mbi0-8" value="" style="line;strokeWidth=1;fillColor=none;align=left;verticalAlign=middle;spacingTop=-1;spacingLeft=3;spacingRight=3;rotatable=0;labelPosition=right;points=[];portConstraint=eastwest;strokeColor=inherit;" parent="Z0m8vk_GXYHYSWQ5mbi0-5" vertex="1">
          <mxGeometry y="110" width="150" height="10" as="geometry" />
        </mxCell>
        <mxCell id="Z0m8vk_GXYHYSWQ5mbi0-9" value="&lt;div style=&quot;border-color: var(--border-color);&quot;&gt;&amp;nbsp; &amp;nbsp; &amp;nbsp; &amp;nbsp; &amp;lt;&amp;lt;@inputs&amp;gt;&amp;gt;&lt;br&gt;&lt;br&gt;&lt;/div&gt;" style="text;strokeColor=none;fillColor=none;align=left;verticalAlign=top;spacingLeft=4;spacingRight=4;overflow=hidden;rotatable=0;points=[[0,0.5],[1,0.5]];portConstraint=eastwest;whiteSpace=wrap;html=1;collapsible=1;marginBottom=0" parent="Z0m8vk_GXYHYSWQ5mbi0-5" vertex="1">
          <mxGeometry y="120" width="150" height="21" as="geometry">
            <mxRectangle y="120" width="150" height="42" as="alternateBounds" />
          </mxGeometry>
        </mxCell>
        <mxCell id="Z0m8vk_GXYHYSWQ5mbi0-10" value="" style="line;strokeWidth=1;fillColor=none;align=left;verticalAlign=middle;spacingTop=-1;spacingLeft=3;spacingRight=3;rotatable=0;labelPosition=right;points=[];portConstraint=eastwest;strokeColor=inherit;" parent="Z0m8vk_GXYHYSWQ5mbi0-5" vertex="1">
          <mxGeometry y="141" width="150" height="8" as="geometry" />
        </mxCell>
        <mxCell id="Z0m8vk_GXYHYSWQ5mbi0-11" value="&lt;div style=&quot;border-color: var(--border-color); text-align: center;&quot;&gt;&amp;nbsp; &amp;nbsp; &amp;nbsp; &amp;lt;&amp;lt;@attributes&amp;gt;&amp;gt;&lt;/div&gt;wingspan&lt;div&gt;wing_position&lt;/div&gt;&lt;div&gt;hor_tail_position&lt;/div&gt;&lt;div&gt;ver_tail_position&lt;/div&gt;&lt;div&gt;&lt;br&gt;&lt;div&gt;&lt;br&gt;&lt;/div&gt;&lt;/div&gt;" style="text;strokeColor=none;fillColor=none;align=left;verticalAlign=top;spacingLeft=4;spacingRight=4;overflow=hidden;rotatable=0;points=[[0,0.5],[1,0.5]];portConstraint=eastwest;whiteSpace=wrap;html=1;collapsible=1;marginBottom=0" parent="Z0m8vk_GXYHYSWQ5mbi0-5" vertex="1" collapsed="1">
          <mxGeometry y="149" width="150" height="81" as="geometry">
            <mxRectangle y="138" width="150" height="21" as="alternateBounds" />
          </mxGeometry>
        </mxCell>
        <mxCell id="Z0m8vk_GXYHYSWQ5mbi0-19" value="LiftingSurface" style="swimlane;fontStyle=0;childLayout=stackLayout;horizontal=1;startSize=26;fillColor=none;horizontalStack=0;resizeParent=1;resizeParentMax=0;resizeLast=0;collapsible=1;marginBottom=0;whiteSpace=wrap;html=1;" parent="1" vertex="1">
          <mxGeometry x="-820" y="340" width="160" height="250" as="geometry">
            <mxRectangle x="60" y="112" width="90" height="30" as="alternateBounds" />
          </mxGeometry>
        </mxCell>
        <mxCell id="Z0m8vk_GXYHYSWQ5mbi0-20" value="&lt;div style=&quot;text-align: center;&quot;&gt;&lt;span style=&quot;background-color: initial;&quot;&gt;&amp;lt;&amp;lt;inputs&amp;gt;&amp;gt;&lt;br&gt;&lt;br&gt;&lt;/span&gt;&lt;/div&gt;&lt;div&gt;&lt;br&gt;&lt;/div&gt;" style="text;strokeColor=none;fillColor=none;align=left;verticalAlign=top;spacingLeft=4;spacingRight=4;overflow=hidden;rotatable=0;points=[[0,0.5],[1,0.5]];portConstraint=eastwest;whiteSpace=wrap;html=1;collapsible=1;marginBottom=0;" parent="Z0m8vk_GXYHYSWQ5mbi0-19" vertex="1" collapsed="1">
          <mxGeometry y="26" width="160" height="44" as="geometry">
            <mxRectangle y="26" width="150" height="20" as="alternateBounds" />
          </mxGeometry>
        </mxCell>
        <mxCell id="Z0m8vk_GXYHYSWQ5mbi0-21" value="" style="line;strokeWidth=1;fillColor=none;align=left;verticalAlign=middle;spacingTop=-1;spacingLeft=3;spacingRight=3;rotatable=0;labelPosition=right;points=[];portConstraint=eastwest;strokeColor=inherit;" parent="Z0m8vk_GXYHYSWQ5mbi0-19" vertex="1">
          <mxGeometry y="70" width="160" as="geometry" />
        </mxCell>
        <mxCell id="Z0m8vk_GXYHYSWQ5mbi0-22" value="" style="line;strokeWidth=1;fillColor=none;align=left;verticalAlign=middle;spacingTop=-1;spacingLeft=3;spacingRight=3;rotatable=0;labelPosition=right;points=[];portConstraint=eastwest;strokeColor=inherit;" parent="Z0m8vk_GXYHYSWQ5mbi0-19" vertex="1">
          <mxGeometry y="70" width="160" height="10" as="geometry" />
        </mxCell>
        <mxCell id="Z0m8vk_GXYHYSWQ5mbi0-23" value="&lt;div style=&quot;border-color: var(--border-color);&quot;&gt;&amp;nbsp; &amp;nbsp; &amp;nbsp; &amp;nbsp; &amp;lt;&amp;lt;@inputs&amp;gt;&amp;gt;&lt;br&gt;&lt;br&gt;&lt;/div&gt;" style="text;strokeColor=none;fillColor=none;align=left;verticalAlign=top;spacingLeft=4;spacingRight=4;overflow=hidden;rotatable=0;points=[[0,0.5],[1,0.5]];portConstraint=eastwest;whiteSpace=wrap;html=1;collapsible=1;marginBottom=0" parent="Z0m8vk_GXYHYSWQ5mbi0-19" vertex="1">
          <mxGeometry y="80" width="160" height="21" as="geometry">
            <mxRectangle y="120" width="150" height="42" as="alternateBounds" />
          </mxGeometry>
        </mxCell>
        <mxCell id="Z0m8vk_GXYHYSWQ5mbi0-24" value="" style="line;strokeWidth=1;fillColor=none;align=left;verticalAlign=middle;spacingTop=-1;spacingLeft=3;spacingRight=3;rotatable=0;labelPosition=right;points=[];portConstraint=eastwest;strokeColor=inherit;" parent="Z0m8vk_GXYHYSWQ5mbi0-19" vertex="1">
          <mxGeometry y="101" width="160" height="8" as="geometry" />
        </mxCell>
        <mxCell id="Z0m8vk_GXYHYSWQ5mbi0-25" value="&lt;div style=&quot;border-color: var(--border-color); text-align: center;&quot;&gt;&amp;lt;&amp;lt;@attributes&amp;gt;&amp;gt;&lt;/div&gt;num_sectoins&lt;div&gt;semi_span&lt;/div&gt;&lt;div&gt;surface_area&lt;/div&gt;&lt;div&gt;q3d_planform_geom&lt;br&gt;q3d_wing_airfoils&lt;br&gt;q3d_wing_incidence_angle&lt;br&gt;sec_root_chord&lt;br&gt;sec_tip_chord&lt;br&gt;&lt;br&gt;&lt;div&gt;&lt;br&gt;&lt;div&gt;&lt;br&gt;&lt;/div&gt;&lt;/div&gt;&lt;/div&gt;" style="text;strokeColor=none;fillColor=none;align=left;verticalAlign=top;spacingLeft=4;spacingRight=4;overflow=hidden;rotatable=0;points=[[0,0.5],[1,0.5]];portConstraint=eastwest;whiteSpace=wrap;html=1;collapsible=1;marginBottom=0" parent="Z0m8vk_GXYHYSWQ5mbi0-19" vertex="1" collapsed="1">
          <mxGeometry y="109" width="160" height="141" as="geometry">
            <mxRectangle y="138" width="150" height="21" as="alternateBounds" />
          </mxGeometry>
        </mxCell>
        <mxCell id="Z0m8vk_GXYHYSWQ5mbi0-35" value="" style="endArrow=diamondThin;html=1;rounded=0;fontFamily=Helvetica;fontSize=12;fontColor=default;endFill=1;entryX=-0.007;entryY=0.55;entryDx=0;entryDy=0;entryPerimeter=0;exitX=0;exitY=0;exitDx=0;exitDy=0;" parent="1" edge="1">
          <mxGeometry width="50" height="50" relative="1" as="geometry">
            <mxPoint x="-818.95" y="340" as="sourcePoint" />
            <mxPoint x="-620" y="142.2" as="targetPoint" />
            <Array as="points">
              <mxPoint x="-818.95" y="142" />
            </Array>
          </mxGeometry>
        </mxCell>
        <mxCell id="Z0m8vk_GXYHYSWQ5mbi0-36" value="Main wing 1" style="text;html=1;align=center;verticalAlign=middle;whiteSpace=wrap;rounded=0;fontFamily=Helvetica;fontSize=12;fontColor=default;" parent="1" vertex="1">
          <mxGeometry x="-807" y="120" width="70" height="30" as="geometry" />
        </mxCell>
        <mxCell id="Z0m8vk_GXYHYSWQ5mbi0-37" value="" style="endArrow=diamondThin;html=1;rounded=0;fontFamily=Helvetica;fontSize=12;fontColor=default;endFill=1;exitX=0.25;exitY=0;exitDx=0;exitDy=0;" parent="1" source="Z0m8vk_GXYHYSWQ5mbi0-19" edge="1">
          <mxGeometry width="50" height="50" relative="1" as="geometry">
            <mxPoint x="-782.5" y="354" as="sourcePoint" />
            <mxPoint x="-620" y="170" as="targetPoint" />
            <Array as="points">
              <mxPoint x="-782" y="170" />
              <mxPoint x="-687" y="170" />
            </Array>
          </mxGeometry>
        </mxCell>
        <mxCell id="Z0m8vk_GXYHYSWQ5mbi0-38" value="Horizontal stabilizer 1" style="text;html=1;align=center;verticalAlign=middle;whiteSpace=wrap;rounded=0;fontFamily=Helvetica;fontSize=12;fontColor=default;" parent="1" vertex="1">
          <mxGeometry x="-780" y="150" width="123" height="30" as="geometry" />
        </mxCell>
        <mxCell id="Z0m8vk_GXYHYSWQ5mbi0-39" value="" style="endArrow=diamondThin;html=1;rounded=0;fontFamily=Helvetica;fontSize=12;fontColor=default;endFill=1;exitX=0.5;exitY=0;exitDx=0;exitDy=0;" parent="1" source="Z0m8vk_GXYHYSWQ5mbi0-19" edge="1">
          <mxGeometry width="50" height="50" relative="1" as="geometry">
            <mxPoint x="-782" y="370" as="sourcePoint" />
            <mxPoint x="-620" y="200" as="targetPoint" />
            <Array as="points">
              <mxPoint x="-740" y="200" />
              <mxPoint x="-687" y="200" />
            </Array>
          </mxGeometry>
        </mxCell>
        <mxCell id="Z0m8vk_GXYHYSWQ5mbi0-40" value="Vertical stabilzer 1" style="text;html=1;align=center;verticalAlign=middle;whiteSpace=wrap;rounded=0;fontFamily=Helvetica;fontSize=12;fontColor=default;" parent="1" vertex="1">
          <mxGeometry x="-753" y="180" width="123" height="30" as="geometry" />
        </mxCell>
        <mxCell id="Z0m8vk_GXYHYSWQ5mbi0-42" value="LiftingSection" style="swimlane;fontStyle=0;childLayout=stackLayout;horizontal=1;startSize=26;fillColor=none;horizontalStack=0;resizeParent=1;resizeParentMax=0;resizeLast=0;collapsible=1;marginBottom=0;whiteSpace=wrap;html=1;" parent="1" vertex="1">
          <mxGeometry x="-1060" y="340" width="190" height="330" as="geometry">
            <mxRectangle x="60" y="112" width="90" height="30" as="alternateBounds" />
          </mxGeometry>
        </mxCell>
        <mxCell id="Z0m8vk_GXYHYSWQ5mbi0-43" value="&lt;div style=&quot;text-align: center;&quot;&gt;&lt;div&gt;&lt;span style=&quot;background-color: initial;&quot;&gt;&amp;lt;&amp;lt;inputs&amp;gt;&amp;gt;&lt;/span&gt;&lt;/div&gt;&lt;div style=&quot;text-align: left;&quot;&gt;&lt;span style=&quot;background-color: transparent; color: light-dark(rgb(0, 0, 0), rgb(255, 255, 255));&quot;&gt;root_airfoil_id&amp;nbsp;&lt;/span&gt;&lt;/div&gt;&lt;div style=&quot;text-align: left;&quot;&gt;&lt;span style=&quot;background-color: transparent; color: light-dark(rgb(0, 0, 0), rgb(255, 255, 255));&quot;&gt;tip_airfoil_id&amp;nbsp;&lt;/span&gt;&lt;/div&gt;&lt;div style=&quot;text-align: left;&quot;&gt;&lt;span style=&quot;background-color: transparent; color: light-dark(rgb(0, 0, 0), rgb(255, 255, 255));&quot;&gt;root_chord&amp;nbsp;&lt;/span&gt;&lt;/div&gt;&lt;div style=&quot;text-align: left;&quot;&gt;&lt;span style=&quot;background-color: transparent; color: light-dark(rgb(0, 0, 0), rgb(255, 255, 255));&quot;&gt;taper_ratio&amp;nbsp;&lt;/span&gt;&lt;/div&gt;&lt;div style=&quot;text-align: left;&quot;&gt;&lt;span style=&quot;background-color: transparent; color: light-dark(rgb(0, 0, 0), rgb(255, 255, 255));&quot;&gt;section_span = 7.5&lt;/span&gt;&lt;/div&gt;&lt;div style=&quot;text-align: left;&quot;&gt;&lt;span style=&quot;background-color: transparent; color: light-dark(rgb(0, 0, 0), rgb(255, 255, 255));&quot;&gt;twist = 0.0&lt;/span&gt;&lt;/div&gt;&lt;div style=&quot;text-align: left;&quot;&gt;&lt;span style=&quot;background-color: transparent; color: light-dark(rgb(0, 0, 0), rgb(255, 255, 255));&quot;&gt;dihedral = 0.0&lt;/span&gt;&lt;/div&gt;&lt;div style=&quot;text-align: left;&quot;&gt;&lt;span style=&quot;background-color: transparent; color: light-dark(rgb(0, 0, 0), rgb(255, 255, 255));&quot;&gt;sweep = 0.0&lt;/span&gt;&lt;/div&gt;&lt;div style=&quot;text-align: left;&quot;&gt;&lt;span style=&quot;background-color: transparent; color: light-dark(rgb(0, 0, 0), rgb(255, 255, 255));&quot;&gt;sweep_location = 0.25&lt;/span&gt;&lt;/div&gt;&lt;div style=&quot;text-align: left;&quot;&gt;&lt;span style=&quot;background-color: transparent; color: light-dark(rgb(0, 0, 0), rgb(255, 255, 255));&quot;&gt;control_surface = &quot;None&quot;&lt;/span&gt;&lt;/div&gt;&lt;div style=&quot;text-align: left;&quot;&gt;&lt;span style=&quot;background-color: transparent; color: light-dark(rgb(0, 0, 0), rgb(255, 255, 255));&quot;&gt;mesh_deflection = 1e-4&lt;/span&gt;&lt;/div&gt;&lt;div style=&quot;text-align: left;&quot;&gt;&lt;span style=&quot;background-color: transparent; color: light-dark(rgb(0, 0, 0), rgb(255, 255, 255));&quot;&gt;&lt;br&gt;&lt;/span&gt;&lt;/div&gt;&lt;/div&gt;" style="text;strokeColor=none;fillColor=none;align=left;verticalAlign=top;spacingLeft=4;spacingRight=4;overflow=hidden;rotatable=0;points=[[0,0.5],[1,0.5]];portConstraint=eastwest;whiteSpace=wrap;html=1;collapsible=1;marginBottom=0;" parent="Z0m8vk_GXYHYSWQ5mbi0-42" vertex="1" collapsed="1">
          <mxGeometry y="26" width="190" height="184" as="geometry">
            <mxRectangle y="26" width="150" height="20" as="alternateBounds" />
          </mxGeometry>
        </mxCell>
        <mxCell id="Z0m8vk_GXYHYSWQ5mbi0-44" value="" style="line;strokeWidth=1;fillColor=none;align=left;verticalAlign=middle;spacingTop=-1;spacingLeft=3;spacingRight=3;rotatable=0;labelPosition=right;points=[];portConstraint=eastwest;strokeColor=inherit;" parent="Z0m8vk_GXYHYSWQ5mbi0-42" vertex="1">
          <mxGeometry y="210" width="190" as="geometry" />
        </mxCell>
        <mxCell id="Z0m8vk_GXYHYSWQ5mbi0-45" value="" style="line;strokeWidth=1;fillColor=none;align=left;verticalAlign=middle;spacingTop=-1;spacingLeft=3;spacingRight=3;rotatable=0;labelPosition=right;points=[];portConstraint=eastwest;strokeColor=inherit;" parent="Z0m8vk_GXYHYSWQ5mbi0-42" vertex="1">
          <mxGeometry y="210" width="190" height="10" as="geometry" />
        </mxCell>
        <mxCell id="Z0m8vk_GXYHYSWQ5mbi0-46" value="&lt;div style=&quot;border-color: var(--border-color);&quot;&gt;&amp;nbsp; &amp;nbsp; &amp;nbsp; &amp;nbsp; &amp;lt;&amp;lt;@inputs&amp;gt;&amp;gt;&lt;br&gt;&lt;br&gt;&lt;/div&gt;" style="text;strokeColor=none;fillColor=none;align=left;verticalAlign=top;spacingLeft=4;spacingRight=4;overflow=hidden;rotatable=0;points=[[0,0.5],[1,0.5]];portConstraint=eastwest;whiteSpace=wrap;html=1;collapsible=1;marginBottom=0" parent="Z0m8vk_GXYHYSWQ5mbi0-42" vertex="1">
          <mxGeometry y="220" width="190" height="21" as="geometry">
            <mxRectangle y="120" width="150" height="42" as="alternateBounds" />
          </mxGeometry>
        </mxCell>
        <mxCell id="Z0m8vk_GXYHYSWQ5mbi0-47" value="" style="line;strokeWidth=1;fillColor=none;align=left;verticalAlign=middle;spacingTop=-1;spacingLeft=3;spacingRight=3;rotatable=0;labelPosition=right;points=[];portConstraint=eastwest;strokeColor=inherit;" parent="Z0m8vk_GXYHYSWQ5mbi0-42" vertex="1">
          <mxGeometry y="241" width="190" height="8" as="geometry" />
        </mxCell>
        <mxCell id="Z0m8vk_GXYHYSWQ5mbi0-48" value="&lt;div style=&quot;border-color: var(--border-color); text-align: center;&quot;&gt;&amp;nbsp; &amp;nbsp; &amp;nbsp; &amp;lt;&amp;lt;@attributes&amp;gt;&amp;gt;&lt;/div&gt;root_position&lt;br&gt;tip_position&lt;br&gt;tip_chord&lt;br&gt;area&lt;br&gt;&lt;br&gt;&lt;br&gt;&lt;div&gt;&lt;br&gt;&lt;div&gt;&lt;br&gt;&lt;/div&gt;&lt;/div&gt;" style="text;strokeColor=none;fillColor=none;align=left;verticalAlign=top;spacingLeft=4;spacingRight=4;overflow=hidden;rotatable=0;points=[[0,0.5],[1,0.5]];portConstraint=eastwest;whiteSpace=wrap;html=1;collapsible=1;marginBottom=0" parent="Z0m8vk_GXYHYSWQ5mbi0-42" vertex="1" collapsed="1">
          <mxGeometry y="249" width="190" height="81" as="geometry">
            <mxRectangle y="138" width="150" height="21" as="alternateBounds" />
          </mxGeometry>
        </mxCell>
        <mxCell id="Z0m8vk_GXYHYSWQ5mbi0-50" style="edgeStyle=orthogonalEdgeStyle;rounded=0;orthogonalLoop=1;jettySize=auto;html=1;entryX=-0.021;entryY=0.388;entryDx=0;entryDy=0;fontFamily=Helvetica;fontSize=12;fontColor=default;endArrow=diamondThin;endFill=1;entryPerimeter=0;" parent="1" edge="1">
          <mxGeometry relative="1" as="geometry">
            <mxPoint x="-870" y="399" as="sourcePoint" />
            <mxPoint x="-819.9999999999999" y="398.592" as="targetPoint" />
            <Array as="points">
              <mxPoint x="-836.85" y="398" />
            </Array>
          </mxGeometry>
        </mxCell>
        <mxCell id="Z0m8vk_GXYHYSWQ5mbi0-52" value="&lt;font style=&quot;font-size: 8px;&quot;&gt;Lifting section 1..*&lt;/font&gt;" style="text;html=1;align=center;verticalAlign=middle;whiteSpace=wrap;rounded=0;fontFamily=Helvetica;fontSize=12;fontColor=default;" parent="1" vertex="1">
          <mxGeometry x="-870" y="400" width="50" height="30" as="geometry" />
        </mxCell>
        <mxCell id="Z0m8vk_GXYHYSWQ5mbi0-56" value="GliderFuselage" style="swimlane;fontStyle=0;childLayout=stackLayout;horizontal=1;startSize=26;fillColor=none;horizontalStack=0;resizeParent=1;resizeParentMax=0;resizeLast=0;collapsible=1;marginBottom=0;whiteSpace=wrap;html=1;" parent="1" vertex="1">
          <mxGeometry x="-410" y="340" width="150" height="320" as="geometry">
            <mxRectangle x="60" y="112" width="90" height="30" as="alternateBounds" />
          </mxGeometry>
        </mxCell>
        <mxCell id="Z0m8vk_GXYHYSWQ5mbi0-57" value="&lt;div style=&quot;text-align: center;&quot;&gt;&lt;span style=&quot;background-color: initial;&quot;&gt;&amp;lt;&amp;lt;inputs&amp;gt;&amp;gt;&lt;/span&gt;&lt;/div&gt;name&lt;br&gt;color = &quot;white&quot;&lt;div&gt;xm = 0.25&lt;br&gt;k1 = 1&lt;br&gt;rn = 1.1&lt;/div&gt;&lt;div&gt;ri = 0.7&lt;/div&gt;&lt;div&gt;si = 1.4&lt;/div&gt;&lt;div&gt;xi = 0.4&lt;/div&gt;&lt;div&gt;t = 0.2&lt;/div&gt;&lt;div&gt;L = 7&lt;/div&gt;&lt;div&gt;D = 3.5&lt;br&gt;&lt;br&gt;&lt;/div&gt;" style="text;strokeColor=none;fillColor=none;align=left;verticalAlign=top;spacingLeft=4;spacingRight=4;overflow=hidden;rotatable=0;points=[[0,0.5],[1,0.5]];portConstraint=eastwest;whiteSpace=wrap;html=1;collapsible=1;marginBottom=0;" parent="Z0m8vk_GXYHYSWQ5mbi0-56" vertex="1" collapsed="1">
          <mxGeometry y="26" width="150" height="184" as="geometry">
            <mxRectangle y="26" width="150" height="20" as="alternateBounds" />
          </mxGeometry>
        </mxCell>
        <mxCell id="Z0m8vk_GXYHYSWQ5mbi0-58" value="" style="line;strokeWidth=1;fillColor=none;align=left;verticalAlign=middle;spacingTop=-1;spacingLeft=3;spacingRight=3;rotatable=0;labelPosition=right;points=[];portConstraint=eastwest;strokeColor=inherit;" parent="Z0m8vk_GXYHYSWQ5mbi0-56" vertex="1">
          <mxGeometry y="210" width="150" as="geometry" />
        </mxCell>
        <mxCell id="Z0m8vk_GXYHYSWQ5mbi0-59" value="" style="line;strokeWidth=1;fillColor=none;align=left;verticalAlign=middle;spacingTop=-1;spacingLeft=3;spacingRight=3;rotatable=0;labelPosition=right;points=[];portConstraint=eastwest;strokeColor=inherit;" parent="Z0m8vk_GXYHYSWQ5mbi0-56" vertex="1">
          <mxGeometry y="210" width="150" height="10" as="geometry" />
        </mxCell>
        <mxCell id="Z0m8vk_GXYHYSWQ5mbi0-60" value="&lt;div style=&quot;border-color: var(--border-color);&quot;&gt;&amp;nbsp; &amp;nbsp; &amp;nbsp; &amp;nbsp; &amp;lt;&amp;lt;@inputs&amp;gt;&amp;gt;&lt;br&gt;&lt;br&gt;&lt;/div&gt;" style="text;strokeColor=none;fillColor=none;align=left;verticalAlign=top;spacingLeft=4;spacingRight=4;overflow=hidden;rotatable=0;points=[[0,0.5],[1,0.5]];portConstraint=eastwest;whiteSpace=wrap;html=1;collapsible=1;marginBottom=0" parent="Z0m8vk_GXYHYSWQ5mbi0-56" vertex="1">
          <mxGeometry y="220" width="150" height="21" as="geometry">
            <mxRectangle y="120" width="150" height="42" as="alternateBounds" />
          </mxGeometry>
        </mxCell>
        <mxCell id="Z0m8vk_GXYHYSWQ5mbi0-61" value="" style="line;strokeWidth=1;fillColor=none;align=left;verticalAlign=middle;spacingTop=-1;spacingLeft=3;spacingRight=3;rotatable=0;labelPosition=right;points=[];portConstraint=eastwest;strokeColor=inherit;" parent="Z0m8vk_GXYHYSWQ5mbi0-56" vertex="1">
          <mxGeometry y="241" width="150" height="8" as="geometry" />
        </mxCell>
        <mxCell id="Z0m8vk_GXYHYSWQ5mbi0-62" value="&lt;div style=&quot;border-color: var(--border-color); text-align: center;&quot;&gt;&amp;nbsp; &amp;nbsp; &amp;nbsp; &amp;lt;&amp;lt;@attributes&amp;gt;&amp;gt;&lt;/div&gt;fr&lt;div&gt;s_ia&lt;/div&gt;&lt;div&gt;profile_points&lt;/div&gt;&lt;div&gt;&lt;br&gt;&lt;div&gt;&lt;br&gt;&lt;div&gt;&lt;br&gt;&lt;/div&gt;&lt;/div&gt;&lt;/div&gt;" style="text;strokeColor=none;fillColor=none;align=left;verticalAlign=top;spacingLeft=4;spacingRight=4;overflow=hidden;rotatable=0;points=[[0,0.5],[1,0.5]];portConstraint=eastwest;whiteSpace=wrap;html=1;collapsible=1;marginBottom=0" parent="Z0m8vk_GXYHYSWQ5mbi0-56" vertex="1" collapsed="1">
          <mxGeometry y="249" width="150" height="71" as="geometry">
            <mxRectangle y="138" width="150" height="21" as="alternateBounds" />
          </mxGeometry>
        </mxCell>
        <mxCell id="Z0m8vk_GXYHYSWQ5mbi0-64" value="" style="endArrow=diamondThin;html=1;rounded=0;fontFamily=Helvetica;fontSize=12;fontColor=default;endFill=1;exitX=0.5;exitY=0;exitDx=0;exitDy=0;entryX=1.015;entryY=0.545;entryDx=0;entryDy=0;entryPerimeter=0;" parent="1" edge="1">
          <mxGeometry width="50" height="50" relative="1" as="geometry">
            <mxPoint x="-337.25" y="340" as="sourcePoint" />
            <mxPoint x="-470" y="141.78000000000003" as="targetPoint" />
            <Array as="points">
              <mxPoint x="-337.25" y="142" />
            </Array>
          </mxGeometry>
        </mxCell>
        <mxCell id="Z0m8vk_GXYHYSWQ5mbi0-65" value="Fuselage 1" style="text;html=1;align=center;verticalAlign=middle;whiteSpace=wrap;rounded=0;fontFamily=Helvetica;fontSize=12;fontColor=default;" parent="1" vertex="1">
          <mxGeometry x="-420" y="120" width="70" height="30" as="geometry" />
        </mxCell>
        <mxCell id="Z0m8vk_GXYHYSWQ5mbi0-113" style="edgeStyle=orthogonalEdgeStyle;rounded=0;orthogonalLoop=1;jettySize=auto;html=1;fontFamily=Helvetica;fontSize=12;fontColor=default;endArrow=diamondThin;endFill=1;entryX=0.997;entryY=0.319;entryDx=0;entryDy=0;entryPerimeter=0;" parent="1" target="Z0m8vk_GXYHYSWQ5mbi0-138" edge="1">
          <mxGeometry relative="1" as="geometry">
            <mxPoint x="-830" y="1060" as="sourcePoint" />
            <mxPoint x="-860" y="785" as="targetPoint" />
            <Array as="points">
              <mxPoint x="-831" y="1040" />
              <mxPoint x="-830" y="772" />
            </Array>
          </mxGeometry>
        </mxCell>
        <mxCell id="Z0m8vk_GXYHYSWQ5mbi0-123" style="edgeStyle=none;rounded=0;orthogonalLoop=1;jettySize=auto;html=1;exitX=0.5;exitY=0;exitDx=0;exitDy=0;fontFamily=Helvetica;fontSize=12;fontColor=default;endArrow=diamondThin;endFill=1;" parent="1" source="Z0m8vk_GXYHYSWQ5mbi0-137" target="Z0m8vk_GXYHYSWQ5mbi0-48" edge="1">
          <mxGeometry relative="1" as="geometry">
            <mxPoint x="-965" y="770" as="sourcePoint" />
          </mxGeometry>
        </mxCell>
        <mxCell id="Z0m8vk_GXYHYSWQ5mbi0-111" style="edgeStyle=orthogonalEdgeStyle;rounded=0;orthogonalLoop=1;jettySize=auto;html=1;entryX=-0.003;entryY=0.188;entryDx=0;entryDy=0;fontFamily=Helvetica;fontSize=12;fontColor=default;endArrow=diamondThin;endFill=1;entryPerimeter=0;exitX=0.467;exitY=0;exitDx=0;exitDy=0;exitPerimeter=0;" parent="1" target="Z0m8vk_GXYHYSWQ5mbi0-138" edge="1">
          <mxGeometry relative="1" as="geometry">
            <mxPoint x="-1286.3400000000001" y="1060" as="sourcePoint" />
            <mxPoint x="-1060" y="757.344" as="targetPoint" />
          </mxGeometry>
        </mxCell>
        <mxCell id="Z0m8vk_GXYHYSWQ5mbi0-114" style="edgeStyle=orthogonalEdgeStyle;rounded=0;orthogonalLoop=1;jettySize=auto;html=1;exitX=0.75;exitY=0;exitDx=0;exitDy=0;entryX=1.009;entryY=0.144;entryDx=0;entryDy=0;fontFamily=Helvetica;fontSize=12;fontColor=default;endArrow=diamondThin;endFill=1;entryPerimeter=0;" parent="1" source="Z0m8vk_GXYHYSWQ5mbi0-144" target="Z0m8vk_GXYHYSWQ5mbi0-138" edge="1">
          <mxGeometry relative="1" as="geometry">
            <mxPoint x="-613.23" y="1070" as="sourcePoint" />
            <mxPoint x="-830" y="760.832" as="targetPoint" />
            <Array as="points">
              <mxPoint x="-620" y="1061" />
              <mxPoint x="-620" y="752" />
            </Array>
          </mxGeometry>
        </mxCell>
        <mxCell id="Z0m8vk_GXYHYSWQ5mbi0-115" style="edgeStyle=none;rounded=0;orthogonalLoop=1;jettySize=auto;html=1;exitX=1;exitY=0.5;exitDx=0;exitDy=0;entryX=-0.001;entryY=0.659;entryDx=0;entryDy=0;fontFamily=Helvetica;fontSize=12;fontColor=default;endArrow=none;startFill=0;dashed=1;dashPattern=8 8;entryPerimeter=0;" parent="1" edge="1">
          <mxGeometry relative="1" as="geometry">
            <mxPoint x="-1209.85" y="1125.96" as="sourcePoint" />
            <mxPoint x="-1170" y="1125.946" as="targetPoint" />
          </mxGeometry>
        </mxCell>
        <mxCell id="Z0m8vk_GXYHYSWQ5mbi0-116" style="edgeStyle=none;rounded=0;orthogonalLoop=1;jettySize=auto;html=1;exitX=1.013;exitY=0.444;exitDx=0;exitDy=0;entryX=-0.002;entryY=0.68;entryDx=0;entryDy=0;fontFamily=Helvetica;fontSize=12;fontColor=default;endArrow=none;startFill=0;dashed=1;dashPattern=8 8;exitPerimeter=0;entryPerimeter=0;" parent="1" source="Z0m8vk_GXYHYSWQ5mbi0-162" target="Z0m8vk_GXYHYSWQ5mbi0-152" edge="1">
          <mxGeometry relative="1" as="geometry">
            <mxPoint x="-999.9999999999998" y="1123.18" as="sourcePoint" />
            <mxPoint x="-929.9999999999998" y="1122.5" as="targetPoint" />
          </mxGeometry>
        </mxCell>
        <mxCell id="Z0m8vk_GXYHYSWQ5mbi0-118" value="{OR}" style="text;html=1;align=center;verticalAlign=middle;whiteSpace=wrap;rounded=0;fontFamily=Helvetica;fontSize=12;fontColor=default;" parent="1" vertex="1">
          <mxGeometry x="-1240" y="1099.27" width="100" height="30" as="geometry" />
        </mxCell>
        <mxCell id="Z0m8vk_GXYHYSWQ5mbi0-119" value="&lt;span style=&quot;color: rgb(0, 0, 0); font-family: Helvetica; font-size: 12px; font-style: normal; font-variant-ligatures: normal; font-variant-caps: normal; font-weight: 400; letter-spacing: normal; orphans: 2; text-align: center; text-indent: 0px; text-transform: none; widows: 2; word-spacing: 0px; -webkit-text-stroke-width: 0px; white-space: normal; background-color: rgb(236, 236, 236); text-decoration-thickness: initial; text-decoration-style: initial; text-decoration-color: initial; display: inline !important; float: none;&quot;&gt;{OR}&lt;/span&gt;" style="text;whiteSpace=wrap;html=1;fontFamily=Helvetica;fontSize=12;fontColor=default;" parent="1" vertex="1">
          <mxGeometry x="-970" y="1099.27" width="60" height="40" as="geometry" />
        </mxCell>
        <mxCell id="Z0m8vk_GXYHYSWQ5mbi0-121" value="&lt;span style=&quot;color: rgb(0, 0, 0); font-family: Helvetica; font-size: 12px; font-style: normal; font-variant-ligatures: normal; font-variant-caps: normal; font-weight: 400; letter-spacing: normal; orphans: 2; text-align: center; text-indent: 0px; text-transform: none; widows: 2; word-spacing: 0px; -webkit-text-stroke-width: 0px; white-space: normal; background-color: rgb(236, 236, 236); text-decoration-thickness: initial; text-decoration-style: initial; text-decoration-color: initial; display: inline !important; float: none;&quot;&gt;{OR}&lt;/span&gt;" style="text;whiteSpace=wrap;html=1;fontFamily=Helvetica;fontSize=12;fontColor=default;" parent="1" vertex="1">
          <mxGeometry x="-740" y="1094.27" width="60" height="40" as="geometry" />
        </mxCell>
        <mxCell id="Z0m8vk_GXYHYSWQ5mbi0-124" value="Airfoils 1..*" style="text;html=1;align=center;verticalAlign=middle;whiteSpace=wrap;rounded=0;fontFamily=Helvetica;fontSize=12;fontColor=default;" parent="1" vertex="1">
          <mxGeometry x="-970" y="675.27" width="100" height="30" as="geometry" />
        </mxCell>
        <mxCell id="Z0m8vk_GXYHYSWQ5mbi0-137" value="Airfoil" style="swimlane;fontStyle=0;childLayout=stackLayout;horizontal=1;startSize=26;fillColor=none;horizontalStack=0;resizeParent=1;resizeParentMax=0;resizeLast=0;collapsible=1;marginBottom=0;whiteSpace=wrap;html=1;" parent="1" vertex="1">
          <mxGeometry x="-1060" y="710" width="190" height="310" as="geometry">
            <mxRectangle x="60" y="112" width="90" height="30" as="alternateBounds" />
          </mxGeometry>
        </mxCell>
        <mxCell id="Z0m8vk_GXYHYSWQ5mbi0-138" value="&lt;div style=&quot;text-align: center;&quot;&gt;&lt;div&gt;&lt;span style=&quot;background-color: initial;&quot;&gt;&amp;lt;&amp;lt;inputs&amp;gt;&amp;gt;&lt;/span&gt;&lt;/div&gt;&lt;div style=&quot;text-align: left;&quot;&gt;&lt;span style=&quot;background-color: transparent; color: light-dark(rgb(0, 0, 0), rgb(255, 255, 255));&quot;&gt;airfoil_name = &quot;nlf1-0015&quot;&lt;/span&gt;&lt;/div&gt;&lt;div style=&quot;text-align: left;&quot;&gt;&lt;span style=&quot;background-color: transparent; color: light-dark(rgb(0, 0, 0), rgb(255, 255, 255));&quot;&gt;chord = 1&lt;/span&gt;&lt;/div&gt;&lt;div style=&quot;text-align: left;&quot;&gt;&lt;span style=&quot;background-color: transparent; color: light-dark(rgb(0, 0, 0), rgb(255, 255, 255));&quot;&gt;cst_poly_order = 5&lt;/span&gt;&lt;/div&gt;&lt;div style=&quot;text-align: left;&quot;&gt;&lt;span style=&quot;background-color: transparent; color: light-dark(rgb(0, 0, 0), rgb(255, 255, 255));&quot;&gt;num_points = 30&lt;/span&gt;&lt;/div&gt;&lt;div style=&quot;text-align: left;&quot;&gt;&lt;span style=&quot;background-color: transparent; color: light-dark(rgb(0, 0, 0), rgb(255, 255, 255));&quot;&gt;points_spacing = &quot;cosine&quot;&lt;/span&gt;&lt;/div&gt;&lt;div style=&quot;text-align: left;&quot;&gt;&lt;span style=&quot;background-color: transparent; color: light-dark(rgb(0, 0, 0), rgb(255, 255, 255));&quot;&gt;closed_TE = True&lt;/span&gt;&lt;/div&gt;&lt;/div&gt;" style="text;strokeColor=none;fillColor=none;align=left;verticalAlign=top;spacingLeft=4;spacingRight=4;overflow=hidden;rotatable=0;points=[[0,0.5],[1,0.5]];portConstraint=eastwest;whiteSpace=wrap;html=1;collapsible=1;marginBottom=0;" parent="Z0m8vk_GXYHYSWQ5mbi0-137" vertex="1" collapsed="1">
          <mxGeometry y="26" width="190" height="114" as="geometry">
            <mxRectangle y="26" width="150" height="20" as="alternateBounds" />
          </mxGeometry>
        </mxCell>
        <mxCell id="Z0m8vk_GXYHYSWQ5mbi0-139" value="" style="line;strokeWidth=1;fillColor=none;align=left;verticalAlign=middle;spacingTop=-1;spacingLeft=3;spacingRight=3;rotatable=0;labelPosition=right;points=[];portConstraint=eastwest;strokeColor=inherit;" parent="Z0m8vk_GXYHYSWQ5mbi0-137" vertex="1">
          <mxGeometry y="140" width="190" as="geometry" />
        </mxCell>
        <mxCell id="Z0m8vk_GXYHYSWQ5mbi0-140" value="" style="line;strokeWidth=1;fillColor=none;align=left;verticalAlign=middle;spacingTop=-1;spacingLeft=3;spacingRight=3;rotatable=0;labelPosition=right;points=[];portConstraint=eastwest;strokeColor=inherit;" parent="Z0m8vk_GXYHYSWQ5mbi0-137" vertex="1">
          <mxGeometry y="140" width="190" height="10" as="geometry" />
        </mxCell>
        <mxCell id="Z0m8vk_GXYHYSWQ5mbi0-141" value="&lt;div style=&quot;border-color: var(--border-color);&quot;&gt;&amp;nbsp; &amp;nbsp; &amp;nbsp; &amp;nbsp; &amp;lt;&amp;lt;@inputs&amp;gt;&amp;gt;&lt;br&gt;&lt;br&gt;&lt;/div&gt;" style="text;strokeColor=none;fillColor=none;align=left;verticalAlign=top;spacingLeft=4;spacingRight=4;overflow=hidden;rotatable=0;points=[[0,0.5],[1,0.5]];portConstraint=eastwest;whiteSpace=wrap;html=1;collapsible=1;marginBottom=0" parent="Z0m8vk_GXYHYSWQ5mbi0-137" vertex="1">
          <mxGeometry y="150" width="190" height="21" as="geometry">
            <mxRectangle y="120" width="150" height="42" as="alternateBounds" />
          </mxGeometry>
        </mxCell>
        <mxCell id="Z0m8vk_GXYHYSWQ5mbi0-142" value="" style="line;strokeWidth=1;fillColor=none;align=left;verticalAlign=middle;spacingTop=-1;spacingLeft=3;spacingRight=3;rotatable=0;labelPosition=right;points=[];portConstraint=eastwest;strokeColor=inherit;" parent="Z0m8vk_GXYHYSWQ5mbi0-137" vertex="1">
          <mxGeometry y="171" width="190" height="8" as="geometry" />
        </mxCell>
        <mxCell id="Z0m8vk_GXYHYSWQ5mbi0-143" value="&lt;div style=&quot;border-color: var(--border-color); text-align: center;&quot;&gt;&amp;nbsp; &amp;nbsp; &amp;nbsp; &amp;lt;&amp;lt;@attributes&amp;gt;&amp;gt;&lt;/div&gt;coords&lt;div&gt;points&lt;/div&gt;&lt;div&gt;cst_coefficients&lt;/div&gt;&lt;div&gt;cst_coeff_u&lt;/div&gt;&lt;div&gt;cst_coeff_l&lt;/div&gt;&lt;div&gt;z_te_u&lt;/div&gt;&lt;div&gt;z_te_l&lt;br&gt;&lt;br&gt;&lt;br&gt;&lt;div&gt;&lt;br&gt;&lt;div&gt;&lt;br&gt;&lt;/div&gt;&lt;/div&gt;&lt;/div&gt;" style="text;strokeColor=none;fillColor=none;align=left;verticalAlign=top;spacingLeft=4;spacingRight=4;overflow=hidden;rotatable=0;points=[[0,0.5],[1,0.5]];portConstraint=eastwest;whiteSpace=wrap;html=1;collapsible=1;marginBottom=0" parent="Z0m8vk_GXYHYSWQ5mbi0-137" vertex="1" collapsed="1">
          <mxGeometry y="179" width="190" height="131" as="geometry">
            <mxRectangle y="138" width="150" height="21" as="alternateBounds" />
          </mxGeometry>
        </mxCell>
        <mxCell id="Z0m8vk_GXYHYSWQ5mbi0-144" value="CSTAirfoil" style="swimlane;fontStyle=0;childLayout=stackLayout;horizontal=1;startSize=26;fillColor=none;horizontalStack=0;resizeParent=1;resizeParentMax=0;resizeLast=0;collapsible=1;marginBottom=0;whiteSpace=wrap;html=1;" parent="1" vertex="1">
          <mxGeometry x="-700" y="1061" width="150" height="190" as="geometry">
            <mxRectangle x="60" y="112" width="90" height="30" as="alternateBounds" />
          </mxGeometry>
        </mxCell>
        <mxCell id="Z0m8vk_GXYHYSWQ5mbi0-145" value="&lt;div style=&quot;text-align: center;&quot;&gt;&lt;span style=&quot;background-color: initial;&quot;&gt;&amp;lt;&amp;lt;inputs&amp;gt;&amp;gt;&lt;/span&gt;&lt;/div&gt;N&lt;div&gt;M&lt;/div&gt;&lt;div&gt;Au&lt;/div&gt;&lt;div&gt;Al&lt;/div&gt;" style="text;strokeColor=none;fillColor=none;align=left;verticalAlign=top;spacingLeft=4;spacingRight=4;overflow=hidden;rotatable=0;points=[[0,0.5],[1,0.5]];portConstraint=eastwest;whiteSpace=wrap;html=1;collapsible=1;marginBottom=0;" parent="Z0m8vk_GXYHYSWQ5mbi0-144" vertex="1" collapsed="1">
          <mxGeometry y="26" width="150" height="84" as="geometry">
            <mxRectangle y="26" width="150" height="20" as="alternateBounds" />
          </mxGeometry>
        </mxCell>
        <mxCell id="Z0m8vk_GXYHYSWQ5mbi0-146" value="" style="line;strokeWidth=1;fillColor=none;align=left;verticalAlign=middle;spacingTop=-1;spacingLeft=3;spacingRight=3;rotatable=0;labelPosition=right;points=[];portConstraint=eastwest;strokeColor=inherit;" parent="Z0m8vk_GXYHYSWQ5mbi0-144" vertex="1">
          <mxGeometry y="110" width="150" as="geometry" />
        </mxCell>
        <mxCell id="Z0m8vk_GXYHYSWQ5mbi0-147" value="" style="line;strokeWidth=1;fillColor=none;align=left;verticalAlign=middle;spacingTop=-1;spacingLeft=3;spacingRight=3;rotatable=0;labelPosition=right;points=[];portConstraint=eastwest;strokeColor=inherit;" parent="Z0m8vk_GXYHYSWQ5mbi0-144" vertex="1">
          <mxGeometry y="110" width="150" height="10" as="geometry" />
        </mxCell>
        <mxCell id="Z0m8vk_GXYHYSWQ5mbi0-148" value="&lt;div style=&quot;border-color: var(--border-color);&quot;&gt;&amp;nbsp; &amp;nbsp; &amp;nbsp; &amp;nbsp; &amp;lt;&amp;lt;@inputs&amp;gt;&amp;gt;&lt;br&gt;&lt;br&gt;&lt;/div&gt;" style="text;strokeColor=none;fillColor=none;align=left;verticalAlign=top;spacingLeft=4;spacingRight=4;overflow=hidden;rotatable=0;points=[[0,0.5],[1,0.5]];portConstraint=eastwest;whiteSpace=wrap;html=1;collapsible=1;marginBottom=0" parent="Z0m8vk_GXYHYSWQ5mbi0-144" vertex="1">
          <mxGeometry y="120" width="150" height="21" as="geometry">
            <mxRectangle y="120" width="150" height="42" as="alternateBounds" />
          </mxGeometry>
        </mxCell>
        <mxCell id="Z0m8vk_GXYHYSWQ5mbi0-149" value="" style="line;strokeWidth=1;fillColor=none;align=left;verticalAlign=middle;spacingTop=-1;spacingLeft=3;spacingRight=3;rotatable=0;labelPosition=right;points=[];portConstraint=eastwest;strokeColor=inherit;" parent="Z0m8vk_GXYHYSWQ5mbi0-144" vertex="1">
          <mxGeometry y="141" width="150" height="8" as="geometry" />
        </mxCell>
        <mxCell id="Z0m8vk_GXYHYSWQ5mbi0-150" value="&lt;div style=&quot;border-color: var(--border-color); text-align: center;&quot;&gt;&amp;nbsp; &amp;nbsp; &amp;nbsp; &amp;lt;&amp;lt;@attributes&amp;gt;&amp;gt;&lt;/div&gt;calculate_coordinates()&lt;br&gt;&lt;div&gt;&lt;br&gt;&lt;div&gt;&lt;br&gt;&lt;/div&gt;&lt;/div&gt;" style="text;strokeColor=none;fillColor=none;align=left;verticalAlign=top;spacingLeft=4;spacingRight=4;overflow=hidden;rotatable=0;points=[[0,0.5],[1,0.5]];portConstraint=eastwest;whiteSpace=wrap;html=1;collapsible=1;marginBottom=0" parent="Z0m8vk_GXYHYSWQ5mbi0-144" vertex="1" collapsed="1">
          <mxGeometry y="149" width="150" height="41" as="geometry">
            <mxRectangle y="138" width="150" height="21" as="alternateBounds" />
          </mxGeometry>
        </mxCell>
        <mxCell id="Z0m8vk_GXYHYSWQ5mbi0-151" value="CustomAirfoil" style="swimlane;fontStyle=0;childLayout=stackLayout;horizontal=1;startSize=26;fillColor=none;horizontalStack=0;resizeParent=1;resizeParentMax=0;resizeLast=0;collapsible=1;marginBottom=0;whiteSpace=wrap;html=1;" parent="1" vertex="1">
          <mxGeometry x="-900" y="1060" width="150" height="160" as="geometry">
            <mxRectangle x="60" y="112" width="90" height="30" as="alternateBounds" />
          </mxGeometry>
        </mxCell>
        <mxCell id="Z0m8vk_GXYHYSWQ5mbi0-152" value="&lt;div style=&quot;text-align: center;&quot;&gt;&lt;span style=&quot;background-color: initial;&quot;&gt;&amp;lt;&amp;lt;inputs&amp;gt;&amp;gt;&lt;/span&gt;&lt;/div&gt;ClosedTE&lt;div&gt;Normalized&lt;/div&gt;" style="text;strokeColor=none;fillColor=none;align=left;verticalAlign=top;spacingLeft=4;spacingRight=4;overflow=hidden;rotatable=0;points=[[0,0.5],[1,0.5]];portConstraint=eastwest;whiteSpace=wrap;html=1;collapsible=1;marginBottom=0;" parent="Z0m8vk_GXYHYSWQ5mbi0-151" vertex="1" collapsed="1">
          <mxGeometry y="26" width="150" height="54" as="geometry">
            <mxRectangle y="26" width="150" height="20" as="alternateBounds" />
          </mxGeometry>
        </mxCell>
        <mxCell id="Z0m8vk_GXYHYSWQ5mbi0-153" value="" style="line;strokeWidth=1;fillColor=none;align=left;verticalAlign=middle;spacingTop=-1;spacingLeft=3;spacingRight=3;rotatable=0;labelPosition=right;points=[];portConstraint=eastwest;strokeColor=inherit;" parent="Z0m8vk_GXYHYSWQ5mbi0-151" vertex="1">
          <mxGeometry y="80" width="150" as="geometry" />
        </mxCell>
        <mxCell id="Z0m8vk_GXYHYSWQ5mbi0-154" value="" style="line;strokeWidth=1;fillColor=none;align=left;verticalAlign=middle;spacingTop=-1;spacingLeft=3;spacingRight=3;rotatable=0;labelPosition=right;points=[];portConstraint=eastwest;strokeColor=inherit;" parent="Z0m8vk_GXYHYSWQ5mbi0-151" vertex="1">
          <mxGeometry y="80" width="150" height="10" as="geometry" />
        </mxCell>
        <mxCell id="Z0m8vk_GXYHYSWQ5mbi0-155" value="&lt;div style=&quot;border-color: var(--border-color);&quot;&gt;&amp;nbsp; &amp;nbsp; &amp;nbsp; &amp;nbsp; &amp;lt;&amp;lt;@inputs&amp;gt;&amp;gt;&lt;br&gt;&lt;br&gt;&lt;/div&gt;" style="text;strokeColor=none;fillColor=none;align=left;verticalAlign=top;spacingLeft=4;spacingRight=4;overflow=hidden;rotatable=0;points=[[0,0.5],[1,0.5]];portConstraint=eastwest;whiteSpace=wrap;html=1;collapsible=1;marginBottom=0" parent="Z0m8vk_GXYHYSWQ5mbi0-151" vertex="1">
          <mxGeometry y="90" width="150" height="21" as="geometry">
            <mxRectangle y="120" width="150" height="42" as="alternateBounds" />
          </mxGeometry>
        </mxCell>
        <mxCell id="Z0m8vk_GXYHYSWQ5mbi0-156" value="" style="line;strokeWidth=1;fillColor=none;align=left;verticalAlign=middle;spacingTop=-1;spacingLeft=3;spacingRight=3;rotatable=0;labelPosition=right;points=[];portConstraint=eastwest;strokeColor=inherit;" parent="Z0m8vk_GXYHYSWQ5mbi0-151" vertex="1">
          <mxGeometry y="111" width="150" height="8" as="geometry" />
        </mxCell>
        <mxCell id="Z0m8vk_GXYHYSWQ5mbi0-157" value="&lt;div style=&quot;border-color: var(--border-color); text-align: center;&quot;&gt;&amp;nbsp; &amp;nbsp; &amp;nbsp; &amp;lt;&amp;lt;@attributes&amp;gt;&amp;gt;&lt;/div&gt;read_coordinates()&lt;br&gt;&lt;div&gt;&lt;br&gt;&lt;div&gt;&lt;br&gt;&lt;/div&gt;&lt;/div&gt;" style="text;strokeColor=none;fillColor=none;align=left;verticalAlign=top;spacingLeft=4;spacingRight=4;overflow=hidden;rotatable=0;points=[[0,0.5],[1,0.5]];portConstraint=eastwest;whiteSpace=wrap;html=1;collapsible=1;marginBottom=0" parent="Z0m8vk_GXYHYSWQ5mbi0-151" vertex="1" collapsed="1">
          <mxGeometry y="119" width="150" height="41" as="geometry">
            <mxRectangle y="138" width="150" height="21" as="alternateBounds" />
          </mxGeometry>
        </mxCell>
        <mxCell id="Z0m8vk_GXYHYSWQ5mbi0-160" style="edgeStyle=none;rounded=0;orthogonalLoop=1;jettySize=auto;html=1;entryX=0;entryY=0.75;entryDx=0;entryDy=0;fontFamily=Helvetica;fontSize=12;fontColor=default;endArrow=none;startFill=0;dashed=1;dashPattern=8 8;" parent="1" edge="1">
          <mxGeometry relative="1" as="geometry">
            <mxPoint x="-750" y="1119.3400000000001" as="sourcePoint" />
            <mxPoint x="-699.9999999999998" y="1119.2700000000002" as="targetPoint" />
          </mxGeometry>
        </mxCell>
        <mxCell id="Z0m8vk_GXYHYSWQ5mbi0-161" value="NACA5digit" style="swimlane;fontStyle=0;childLayout=stackLayout;horizontal=1;startSize=26;fillColor=none;horizontalStack=0;resizeParent=1;resizeParentMax=0;resizeLast=0;collapsible=1;marginBottom=0;whiteSpace=wrap;html=1;" parent="1" vertex="1">
          <mxGeometry x="-1170" y="1060" width="150" height="190" as="geometry">
            <mxRectangle x="60" y="112" width="90" height="30" as="alternateBounds" />
          </mxGeometry>
        </mxCell>
        <mxCell id="Z0m8vk_GXYHYSWQ5mbi0-162" value="&lt;div style=&quot;text-align: center;&quot;&gt;&lt;span style=&quot;background-color: initial;&quot;&gt;&amp;lt;&amp;lt;inputs&amp;gt;&amp;gt;&lt;/span&gt;&lt;/div&gt;optimalCLdigit&lt;div&gt;camberLocDigit&lt;/div&gt;&lt;div&gt;thicknessDigit&lt;/div&gt;&lt;div&gt;reflecDigit&lt;/div&gt;" style="text;strokeColor=none;fillColor=none;align=left;verticalAlign=top;spacingLeft=4;spacingRight=4;overflow=hidden;rotatable=0;points=[[0,0.5],[1,0.5]];portConstraint=eastwest;whiteSpace=wrap;html=1;collapsible=1;marginBottom=0;" parent="Z0m8vk_GXYHYSWQ5mbi0-161" vertex="1" collapsed="1">
          <mxGeometry y="26" width="150" height="84" as="geometry">
            <mxRectangle y="26" width="150" height="20" as="alternateBounds" />
          </mxGeometry>
        </mxCell>
        <mxCell id="Z0m8vk_GXYHYSWQ5mbi0-163" value="" style="line;strokeWidth=1;fillColor=none;align=left;verticalAlign=middle;spacingTop=-1;spacingLeft=3;spacingRight=3;rotatable=0;labelPosition=right;points=[];portConstraint=eastwest;strokeColor=inherit;" parent="Z0m8vk_GXYHYSWQ5mbi0-161" vertex="1">
          <mxGeometry y="110" width="150" as="geometry" />
        </mxCell>
        <mxCell id="Z0m8vk_GXYHYSWQ5mbi0-164" value="" style="line;strokeWidth=1;fillColor=none;align=left;verticalAlign=middle;spacingTop=-1;spacingLeft=3;spacingRight=3;rotatable=0;labelPosition=right;points=[];portConstraint=eastwest;strokeColor=inherit;" parent="Z0m8vk_GXYHYSWQ5mbi0-161" vertex="1">
          <mxGeometry y="110" width="150" height="10" as="geometry" />
        </mxCell>
        <mxCell id="Z0m8vk_GXYHYSWQ5mbi0-165" value="&lt;div style=&quot;border-color: var(--border-color);&quot;&gt;&amp;nbsp; &amp;nbsp; &amp;nbsp; &amp;nbsp; &amp;lt;&amp;lt;@inputs&amp;gt;&amp;gt;&lt;br&gt;&lt;br&gt;&lt;/div&gt;" style="text;strokeColor=none;fillColor=none;align=left;verticalAlign=top;spacingLeft=4;spacingRight=4;overflow=hidden;rotatable=0;points=[[0,0.5],[1,0.5]];portConstraint=eastwest;whiteSpace=wrap;html=1;collapsible=1;marginBottom=0" parent="Z0m8vk_GXYHYSWQ5mbi0-161" vertex="1">
          <mxGeometry y="120" width="150" height="21" as="geometry">
            <mxRectangle y="120" width="150" height="42" as="alternateBounds" />
          </mxGeometry>
        </mxCell>
        <mxCell id="Z0m8vk_GXYHYSWQ5mbi0-166" value="" style="line;strokeWidth=1;fillColor=none;align=left;verticalAlign=middle;spacingTop=-1;spacingLeft=3;spacingRight=3;rotatable=0;labelPosition=right;points=[];portConstraint=eastwest;strokeColor=inherit;" parent="Z0m8vk_GXYHYSWQ5mbi0-161" vertex="1">
          <mxGeometry y="141" width="150" height="8" as="geometry" />
        </mxCell>
        <mxCell id="Z0m8vk_GXYHYSWQ5mbi0-167" value="&lt;div style=&quot;border-color: var(--border-color); text-align: center;&quot;&gt;&amp;nbsp; &amp;nbsp; &amp;nbsp; &amp;lt;&amp;lt;@attributes&amp;gt;&amp;gt;&lt;/div&gt;calculate_coordinates()&lt;br&gt;&lt;div&gt;&lt;br&gt;&lt;div&gt;&lt;br&gt;&lt;/div&gt;&lt;/div&gt;" style="text;strokeColor=none;fillColor=none;align=left;verticalAlign=top;spacingLeft=4;spacingRight=4;overflow=hidden;rotatable=0;points=[[0,0.5],[1,0.5]];portConstraint=eastwest;whiteSpace=wrap;html=1;collapsible=1;marginBottom=0" parent="Z0m8vk_GXYHYSWQ5mbi0-161" vertex="1" collapsed="1">
          <mxGeometry y="149" width="150" height="41" as="geometry">
            <mxRectangle y="138" width="150" height="21" as="alternateBounds" />
          </mxGeometry>
        </mxCell>
        <mxCell id="Z0m8vk_GXYHYSWQ5mbi0-168" value="NACA4digit" style="swimlane;fontStyle=0;childLayout=stackLayout;horizontal=1;startSize=26;fillColor=none;horizontalStack=0;resizeParent=1;resizeParentMax=0;resizeLast=0;collapsible=1;marginBottom=0;whiteSpace=wrap;html=1;" parent="1" vertex="1">
          <mxGeometry x="-1360" y="1061" width="150" height="170" as="geometry">
            <mxRectangle x="60" y="112" width="90" height="30" as="alternateBounds" />
          </mxGeometry>
        </mxCell>
        <mxCell id="Z0m8vk_GXYHYSWQ5mbi0-169" value="&lt;div style=&quot;text-align: center;&quot;&gt;&lt;span style=&quot;background-color: initial;&quot;&gt;&amp;lt;&amp;lt;inputs&amp;gt;&amp;gt;&lt;/span&gt;&lt;/div&gt;camberDigit&lt;div&gt;camberLocDigit&lt;/div&gt;&lt;div&gt;thicknessDigit&lt;/div&gt;" style="text;strokeColor=none;fillColor=none;align=left;verticalAlign=top;spacingLeft=4;spacingRight=4;overflow=hidden;rotatable=0;points=[[0,0.5],[1,0.5]];portConstraint=eastwest;whiteSpace=wrap;html=1;collapsible=1;marginBottom=0;" parent="Z0m8vk_GXYHYSWQ5mbi0-168" vertex="1" collapsed="1">
          <mxGeometry y="26" width="150" height="64" as="geometry">
            <mxRectangle y="26" width="150" height="20" as="alternateBounds" />
          </mxGeometry>
        </mxCell>
        <mxCell id="Z0m8vk_GXYHYSWQ5mbi0-170" value="" style="line;strokeWidth=1;fillColor=none;align=left;verticalAlign=middle;spacingTop=-1;spacingLeft=3;spacingRight=3;rotatable=0;labelPosition=right;points=[];portConstraint=eastwest;strokeColor=inherit;" parent="Z0m8vk_GXYHYSWQ5mbi0-168" vertex="1">
          <mxGeometry y="90" width="150" as="geometry" />
        </mxCell>
        <mxCell id="Z0m8vk_GXYHYSWQ5mbi0-171" value="" style="line;strokeWidth=1;fillColor=none;align=left;verticalAlign=middle;spacingTop=-1;spacingLeft=3;spacingRight=3;rotatable=0;labelPosition=right;points=[];portConstraint=eastwest;strokeColor=inherit;" parent="Z0m8vk_GXYHYSWQ5mbi0-168" vertex="1">
          <mxGeometry y="90" width="150" height="10" as="geometry" />
        </mxCell>
        <mxCell id="Z0m8vk_GXYHYSWQ5mbi0-172" value="&lt;div style=&quot;border-color: var(--border-color);&quot;&gt;&amp;nbsp; &amp;nbsp; &amp;nbsp; &amp;nbsp; &amp;lt;&amp;lt;@inputs&amp;gt;&amp;gt;&lt;br&gt;&lt;br&gt;&lt;/div&gt;" style="text;strokeColor=none;fillColor=none;align=left;verticalAlign=top;spacingLeft=4;spacingRight=4;overflow=hidden;rotatable=0;points=[[0,0.5],[1,0.5]];portConstraint=eastwest;whiteSpace=wrap;html=1;collapsible=1;marginBottom=0" parent="Z0m8vk_GXYHYSWQ5mbi0-168" vertex="1">
          <mxGeometry y="100" width="150" height="21" as="geometry">
            <mxRectangle y="120" width="150" height="42" as="alternateBounds" />
          </mxGeometry>
        </mxCell>
        <mxCell id="Z0m8vk_GXYHYSWQ5mbi0-173" value="" style="line;strokeWidth=1;fillColor=none;align=left;verticalAlign=middle;spacingTop=-1;spacingLeft=3;spacingRight=3;rotatable=0;labelPosition=right;points=[];portConstraint=eastwest;strokeColor=inherit;" parent="Z0m8vk_GXYHYSWQ5mbi0-168" vertex="1">
          <mxGeometry y="121" width="150" height="8" as="geometry" />
        </mxCell>
        <mxCell id="Z0m8vk_GXYHYSWQ5mbi0-174" value="&lt;div style=&quot;border-color: var(--border-color); text-align: center;&quot;&gt;&amp;nbsp; &amp;nbsp; &amp;nbsp; &amp;lt;&amp;lt;@attributes&amp;gt;&amp;gt;&lt;/div&gt;calculate_coordinates()&lt;br&gt;&lt;div&gt;&lt;br&gt;&lt;div&gt;&lt;br&gt;&lt;/div&gt;&lt;/div&gt;" style="text;strokeColor=none;fillColor=none;align=left;verticalAlign=top;spacingLeft=4;spacingRight=4;overflow=hidden;rotatable=0;points=[[0,0.5],[1,0.5]];portConstraint=eastwest;whiteSpace=wrap;html=1;collapsible=1;marginBottom=0" parent="Z0m8vk_GXYHYSWQ5mbi0-168" vertex="1" collapsed="1">
          <mxGeometry y="129" width="150" height="41" as="geometry">
            <mxRectangle y="138" width="150" height="21" as="alternateBounds" />
          </mxGeometry>
        </mxCell>
        <mxCell id="Z0m8vk_GXYHYSWQ5mbi0-175" value="Airfoil coordinates 0, 1" style="text;html=1;align=center;verticalAlign=middle;whiteSpace=wrap;rounded=0;fontFamily=Helvetica;fontSize=12;fontColor=default;" parent="1" vertex="1">
          <mxGeometry x="-1260" y="730" width="130" height="30" as="geometry" />
        </mxCell>
        <mxCell id="Z0m8vk_GXYHYSWQ5mbi0-176" value="Airfoil coordinates 0, 1" style="text;html=1;align=center;verticalAlign=middle;whiteSpace=wrap;rounded=0;fontFamily=Helvetica;fontSize=12;fontColor=default;" parent="1" vertex="1">
          <mxGeometry x="-1270" y="882.91" width="130" height="30" as="geometry" />
        </mxCell>
        <mxCell id="Z0m8vk_GXYHYSWQ5mbi0-177" value="Airfoil coordinates 0, 1" style="text;html=1;align=center;verticalAlign=middle;whiteSpace=wrap;rounded=0;fontFamily=Helvetica;fontSize=12;fontColor=default;" parent="1" vertex="1">
          <mxGeometry x="-770" y="730" width="130" height="30" as="geometry" />
        </mxCell>
        <mxCell id="Z0m8vk_GXYHYSWQ5mbi0-178" value="Airfoil coordinates 0, 1" style="text;html=1;align=center;verticalAlign=middle;whiteSpace=wrap;rounded=0;fontFamily=Helvetica;fontSize=12;fontColor=default;" parent="1" vertex="1">
          <mxGeometry x="-820" y="882.91" width="130" height="30" as="geometry" />
        </mxCell>
        <mxCell id="Z0m8vk_GXYHYSWQ5mbi0-179" value="Engine" style="swimlane;fontStyle=0;childLayout=stackLayout;horizontal=1;startSize=26;fillColor=none;horizontalStack=0;resizeParent=1;resizeParentMax=0;resizeLast=0;collapsible=1;marginBottom=0;whiteSpace=wrap;html=1;" parent="1" vertex="1">
          <mxGeometry x="-630" y="340.4" width="170" height="190" as="geometry">
            <mxRectangle x="60" y="112" width="90" height="30" as="alternateBounds" />
          </mxGeometry>
        </mxCell>
        <mxCell id="Z0m8vk_GXYHYSWQ5mbi0-180" value="&lt;div style=&quot;text-align: center;&quot;&gt;&lt;span style=&quot;background-color: initial;&quot;&gt;&amp;lt;&amp;lt;inputs&amp;gt;&amp;gt;&lt;/span&gt;&lt;/div&gt;&lt;div&gt;engine_type = &quot;No engine&quot;&lt;/div&gt;&lt;div&gt;minimum_range = 100&lt;/div&gt;&lt;div&gt;minimum_climb_speed = 1.5&lt;/div&gt;&lt;div&gt;&lt;br&gt;&lt;/div&gt;&lt;div&gt;&lt;br&gt;&lt;/div&gt;" style="text;strokeColor=none;fillColor=none;align=left;verticalAlign=top;spacingLeft=4;spacingRight=4;overflow=hidden;rotatable=0;points=[[0,0.5],[1,0.5]];portConstraint=eastwest;whiteSpace=wrap;html=1;collapsible=1;marginBottom=0;" parent="Z0m8vk_GXYHYSWQ5mbi0-179" vertex="1" collapsed="1">
          <mxGeometry y="26" width="170" height="64" as="geometry">
            <mxRectangle y="26" width="150" height="20" as="alternateBounds" />
          </mxGeometry>
        </mxCell>
        <mxCell id="Z0m8vk_GXYHYSWQ5mbi0-181" value="" style="line;strokeWidth=1;fillColor=none;align=left;verticalAlign=middle;spacingTop=-1;spacingLeft=3;spacingRight=3;rotatable=0;labelPosition=right;points=[];portConstraint=eastwest;strokeColor=inherit;" parent="Z0m8vk_GXYHYSWQ5mbi0-179" vertex="1">
          <mxGeometry y="90" width="170" as="geometry" />
        </mxCell>
        <mxCell id="Z0m8vk_GXYHYSWQ5mbi0-182" value="" style="line;strokeWidth=1;fillColor=none;align=left;verticalAlign=middle;spacingTop=-1;spacingLeft=3;spacingRight=3;rotatable=0;labelPosition=right;points=[];portConstraint=eastwest;strokeColor=inherit;" parent="Z0m8vk_GXYHYSWQ5mbi0-179" vertex="1">
          <mxGeometry y="90" width="170" height="10" as="geometry" />
        </mxCell>
        <mxCell id="Z0m8vk_GXYHYSWQ5mbi0-183" value="&lt;div style=&quot;border-color: var(--border-color);&quot;&gt;&amp;nbsp; &amp;nbsp; &amp;nbsp; &amp;nbsp; &amp;lt;&amp;lt;@inputs&amp;gt;&amp;gt;&lt;br&gt;&lt;br&gt;&lt;/div&gt;" style="text;strokeColor=none;fillColor=none;align=left;verticalAlign=top;spacingLeft=4;spacingRight=4;overflow=hidden;rotatable=0;points=[[0,0.5],[1,0.5]];portConstraint=eastwest;whiteSpace=wrap;html=1;collapsible=1;marginBottom=0" parent="Z0m8vk_GXYHYSWQ5mbi0-179" vertex="1">
          <mxGeometry y="100" width="170" height="21" as="geometry">
            <mxRectangle y="120" width="150" height="42" as="alternateBounds" />
          </mxGeometry>
        </mxCell>
        <mxCell id="Z0m8vk_GXYHYSWQ5mbi0-184" value="" style="line;strokeWidth=1;fillColor=none;align=left;verticalAlign=middle;spacingTop=-1;spacingLeft=3;spacingRight=3;rotatable=0;labelPosition=right;points=[];portConstraint=eastwest;strokeColor=inherit;" parent="Z0m8vk_GXYHYSWQ5mbi0-179" vertex="1">
          <mxGeometry y="121" width="170" height="8" as="geometry" />
        </mxCell>
        <mxCell id="Z0m8vk_GXYHYSWQ5mbi0-185" value="&lt;div style=&quot;border-color: var(--border-color); text-align: center;&quot;&gt;&amp;nbsp; &amp;nbsp; &amp;nbsp; &amp;lt;&amp;lt;@attributes&amp;gt;&amp;gt;&lt;/div&gt;size_engine&lt;div&gt;size_energy_source&lt;/div&gt;&lt;div&gt;&lt;br&gt;&lt;div&gt;&lt;br&gt;&lt;div&gt;&lt;br&gt;&lt;div&gt;&lt;br&gt;&lt;/div&gt;&lt;/div&gt;&lt;/div&gt;&lt;/div&gt;" style="text;strokeColor=none;fillColor=none;align=left;verticalAlign=top;spacingLeft=4;spacingRight=4;overflow=hidden;rotatable=0;points=[[0,0.5],[1,0.5]];portConstraint=eastwest;whiteSpace=wrap;html=1;collapsible=1;marginBottom=0" parent="Z0m8vk_GXYHYSWQ5mbi0-179" vertex="1" collapsed="1">
          <mxGeometry y="129" width="170" height="61" as="geometry">
            <mxRectangle y="138" width="150" height="21" as="alternateBounds" />
          </mxGeometry>
        </mxCell>
        <mxCell id="Z0m8vk_GXYHYSWQ5mbi0-195" style="edgeStyle=none;rounded=0;orthogonalLoop=1;jettySize=auto;html=1;exitX=0.5;exitY=0;exitDx=0;exitDy=0;entryX=0.496;entryY=0.997;entryDx=0;entryDy=0;entryPerimeter=0;fontFamily=Helvetica;fontSize=12;fontColor=default;endArrow=diamondThin;endFill=1;" parent="1" target="Z0m8vk_GXYHYSWQ5mbi0-11" edge="1">
          <mxGeometry relative="1" as="geometry">
            <mxPoint x="-545.36" y="340.3999999999999" as="sourcePoint" />
            <mxPoint x="-544.6400000000001" y="300.405" as="targetPoint" />
          </mxGeometry>
        </mxCell>
        <mxCell id="Z0m8vk_GXYHYSWQ5mbi0-198" style="edgeStyle=orthogonalEdgeStyle;rounded=0;orthogonalLoop=1;jettySize=auto;html=1;exitX=0.5;exitY=0;exitDx=0;exitDy=0;fontFamily=Helvetica;fontSize=12;fontColor=default;endArrow=diamondThin;endFill=1;" parent="1" source="Z0m8vk_GXYHYSWQ5mbi0-161" target="Z0m8vk_GXYHYSWQ5mbi0-138" edge="1">
          <mxGeometry relative="1" as="geometry">
            <mxPoint x="-1094.2400000000002" y="1061.81" as="sourcePoint" />
            <mxPoint x="-1060" y="784.45" as="targetPoint" />
            <Array as="points">
              <mxPoint x="-1092" y="1060" />
              <mxPoint x="-1092" y="780" />
            </Array>
          </mxGeometry>
        </mxCell>
        <mxCell id="Z0m8vk_GXYHYSWQ5mbi0-205" value="Engine 0,1" style="text;html=1;align=center;verticalAlign=middle;resizable=0;points=[];autosize=1;strokeColor=none;fillColor=none;fontFamily=Helvetica;fontSize=12;fontColor=default;" parent="1" vertex="1">
          <mxGeometry x="-550" y="310" width="80" height="30" as="geometry" />
        </mxCell>
      </root>
    </mxGraphModel>
  </diagram>
  <diagram id="Y-xbeOw8P72VTP2vad06" name="Activity_diagram_user">
    <mxGraphModel dx="906" dy="544" grid="1" gridSize="10" guides="1" tooltips="1" connect="1" arrows="1" fold="1" page="1" pageScale="1" pageWidth="827" pageHeight="1169" math="0" shadow="0">
      <root>
        <mxCell id="0" />
        <mxCell id="1" parent="0" />
        <mxCell id="Bnk-OcX3R7MusC9zGRZo-1" value="Glidesign user diagram" style="swimlane;html=1;childLayout=stackLayout;startSize=20;rounded=0;shadow=0;comic=0;labelBackgroundColor=none;strokeWidth=1;fontFamily=Verdana;fontSize=12;align=center;strokeColor=none;container=0;" parent="1" vertex="1">
          <mxGeometry x="200" y="180" width="1600" height="1060" as="geometry" />
        </mxCell>
        <mxCell id="Bnk-OcX3R7MusC9zGRZo-12" value="User" style="swimlane;html=1;startSize=20;container=0;" parent="Bnk-OcX3R7MusC9zGRZo-1" vertex="1">
          <mxGeometry y="20" width="400" height="1040" as="geometry" />
        </mxCell>
        <mxCell id="Bnk-OcX3R7MusC9zGRZo-13" style="edgeStyle=orthogonalEdgeStyle;rounded=0;orthogonalLoop=1;jettySize=auto;html=1;exitX=0.5;exitY=1;exitDx=0;exitDy=0;entryX=0.5;entryY=0;entryDx=0;entryDy=0;" parent="Bnk-OcX3R7MusC9zGRZo-12" source="Bnk-OcX3R7MusC9zGRZo-14" target="Bnk-OcX3R7MusC9zGRZo-16" edge="1">
          <mxGeometry relative="1" as="geometry" />
        </mxCell>
        <mxCell id="Bnk-OcX3R7MusC9zGRZo-14" value="" style="ellipse;whiteSpace=wrap;html=1;rounded=0;shadow=0;comic=0;labelBackgroundColor=none;strokeWidth=1;fillColor=#000000;fontFamily=Verdana;fontSize=12;align=center;" parent="Bnk-OcX3R7MusC9zGRZo-12" vertex="1">
          <mxGeometry x="180" y="40" width="40" height="40" as="geometry" />
        </mxCell>
        <mxCell id="Bnk-OcX3R7MusC9zGRZo-15" style="edgeStyle=orthogonalEdgeStyle;rounded=0;orthogonalLoop=1;jettySize=auto;html=1;exitX=0.5;exitY=1;exitDx=0;exitDy=0;entryX=0.5;entryY=0;entryDx=0;entryDy=0;" parent="Bnk-OcX3R7MusC9zGRZo-12" source="Bnk-OcX3R7MusC9zGRZo-16" target="Bnk-OcX3R7MusC9zGRZo-23" edge="1">
          <mxGeometry relative="1" as="geometry" />
        </mxCell>
        <mxCell id="Bnk-OcX3R7MusC9zGRZo-16" value="Initiate glider design" style="rounded=1;whiteSpace=wrap;html=1;fillColor=none;gradientColor=none;strokeColor=default;arcSize=50;" parent="Bnk-OcX3R7MusC9zGRZo-12" vertex="1">
          <mxGeometry x="140" y="100" width="120" height="60" as="geometry" />
        </mxCell>
        <mxCell id="Bnk-OcX3R7MusC9zGRZo-17" value="" style="rounded=0;orthogonalLoop=1;jettySize=auto;html=1;" parent="Bnk-OcX3R7MusC9zGRZo-12" source="Bnk-OcX3R7MusC9zGRZo-18" target="Bnk-OcX3R7MusC9zGRZo-25" edge="1">
          <mxGeometry relative="1" as="geometry" />
        </mxCell>
        <mxCell id="Bnk-OcX3R7MusC9zGRZo-18" value="Use existing glider template&lt;div&gt;(excel sheet)&lt;/div&gt;" style="rounded=1;whiteSpace=wrap;html=1;fillColor=none;gradientColor=none;strokeColor=default;arcSize=50;" parent="Bnk-OcX3R7MusC9zGRZo-12" vertex="1">
          <mxGeometry x="60" y="250" width="120" height="60" as="geometry" />
        </mxCell>
        <mxCell id="Bnk-OcX3R7MusC9zGRZo-19" style="rounded=0;orthogonalLoop=1;jettySize=auto;html=1;exitX=0.5;exitY=1;exitDx=0;exitDy=0;" parent="Bnk-OcX3R7MusC9zGRZo-12" edge="1">
          <mxGeometry relative="1" as="geometry">
            <mxPoint x="250.0000000000001" y="310" as="sourcePoint" />
            <mxPoint x="230" y="340" as="targetPoint" />
          </mxGeometry>
        </mxCell>
        <mxCell id="Bnk-OcX3R7MusC9zGRZo-20" value="User specified glider&lt;div&gt;(excel sheet)&lt;/div&gt;" style="rounded=1;whiteSpace=wrap;html=1;fillColor=none;gradientColor=none;strokeColor=default;arcSize=50;" parent="Bnk-OcX3R7MusC9zGRZo-12" vertex="1">
          <mxGeometry x="220" y="250" width="120" height="60" as="geometry" />
        </mxCell>
        <mxCell id="Bnk-OcX3R7MusC9zGRZo-21" style="rounded=0;orthogonalLoop=1;jettySize=auto;html=1;exitX=0;exitY=1;exitDx=0;exitDy=0;entryX=0.5;entryY=0;entryDx=0;entryDy=0;" parent="Bnk-OcX3R7MusC9zGRZo-12" source="Bnk-OcX3R7MusC9zGRZo-23" target="Bnk-OcX3R7MusC9zGRZo-18" edge="1">
          <mxGeometry relative="1" as="geometry" />
        </mxCell>
        <mxCell id="Bnk-OcX3R7MusC9zGRZo-22" style="rounded=0;orthogonalLoop=1;jettySize=auto;html=1;exitX=1;exitY=1;exitDx=0;exitDy=0;entryX=0.5;entryY=0;entryDx=0;entryDy=0;" parent="Bnk-OcX3R7MusC9zGRZo-12" source="Bnk-OcX3R7MusC9zGRZo-23" target="Bnk-OcX3R7MusC9zGRZo-20" edge="1">
          <mxGeometry relative="1" as="geometry" />
        </mxCell>
        <mxCell id="Bnk-OcX3R7MusC9zGRZo-23" value="" style="rhombus;whiteSpace=wrap;html=1;" parent="Bnk-OcX3R7MusC9zGRZo-12" vertex="1">
          <mxGeometry x="185" y="190" width="30" height="30" as="geometry" />
        </mxCell>
        <mxCell id="Bnk-OcX3R7MusC9zGRZo-24" style="edgeStyle=orthogonalEdgeStyle;rounded=0;orthogonalLoop=1;jettySize=auto;html=1;exitX=0.5;exitY=1;exitDx=0;exitDy=0;" parent="Bnk-OcX3R7MusC9zGRZo-12" source="Bnk-OcX3R7MusC9zGRZo-25" edge="1">
          <mxGeometry relative="1" as="geometry">
            <mxPoint x="200" y="430" as="targetPoint" />
          </mxGeometry>
        </mxCell>
        <mxCell id="Bnk-OcX3R7MusC9zGRZo-25" value="Launch KBE app" style="rounded=1;whiteSpace=wrap;html=1;fillColor=none;gradientColor=none;strokeColor=default;arcSize=50;" parent="Bnk-OcX3R7MusC9zGRZo-12" vertex="1">
          <mxGeometry x="140" y="340" width="120" height="60" as="geometry" />
        </mxCell>
        <mxCell id="Bnk-OcX3R7MusC9zGRZo-26" value="Load glider geometry" style="rounded=1;whiteSpace=wrap;html=1;fillColor=none;gradientColor=none;strokeColor=default;arcSize=50;" parent="Bnk-OcX3R7MusC9zGRZo-12" vertex="1">
          <mxGeometry x="140" y="430" width="120" height="60" as="geometry" />
        </mxCell>
        <mxCell id="Bnk-OcX3R7MusC9zGRZo-27" value="" style="edgeStyle=orthogonalEdgeStyle;rounded=0;orthogonalLoop=1;jettySize=auto;html=1;" parent="Bnk-OcX3R7MusC9zGRZo-12" source="Bnk-OcX3R7MusC9zGRZo-28" edge="1">
          <mxGeometry relative="1" as="geometry">
            <mxPoint x="200.0344827586207" y="610" as="targetPoint" />
          </mxGeometry>
        </mxCell>
        <mxCell id="Bnk-OcX3R7MusC9zGRZo-28" value="Evaluate design" style="rounded=1;whiteSpace=wrap;html=1;fillColor=none;gradientColor=none;strokeColor=default;arcSize=50;" parent="Bnk-OcX3R7MusC9zGRZo-12" vertex="1">
          <mxGeometry x="140" y="520" width="120" height="60" as="geometry" />
        </mxCell>
        <mxCell id="Bnk-OcX3R7MusC9zGRZo-29" style="rounded=0;orthogonalLoop=1;jettySize=auto;html=1;exitX=0.5;exitY=1;exitDx=0;exitDy=0;entryX=0.5;entryY=0;entryDx=0;entryDy=0;" parent="Bnk-OcX3R7MusC9zGRZo-12" source="Bnk-OcX3R7MusC9zGRZo-30" target="oO4y1cDc-_9oZhUK7PBN-27" edge="1">
          <mxGeometry relative="1" as="geometry">
            <mxPoint x="200" y="760" as="targetPoint" />
          </mxGeometry>
        </mxCell>
        <mxCell id="Bnk-OcX3R7MusC9zGRZo-30" value="" style="rhombus;whiteSpace=wrap;html=1;" parent="Bnk-OcX3R7MusC9zGRZo-12" vertex="1">
          <mxGeometry x="185" y="610" width="30" height="30" as="geometry" />
        </mxCell>
        <mxCell id="Bnk-OcX3R7MusC9zGRZo-32" value="Generate initial glider geometry" style="rounded=1;whiteSpace=wrap;html=1;fillColor=none;gradientColor=none;strokeColor=default;arcSize=50;" parent="Bnk-OcX3R7MusC9zGRZo-12" vertex="1">
          <mxGeometry x="540" y="430" width="120" height="60" as="geometry" />
        </mxCell>
        <mxCell id="Bnk-OcX3R7MusC9zGRZo-33" style="edgeStyle=orthogonalEdgeStyle;rounded=0;orthogonalLoop=1;jettySize=auto;html=1;exitX=1;exitY=0.5;exitDx=0;exitDy=0;entryX=0;entryY=0.5;entryDx=0;entryDy=0;" parent="Bnk-OcX3R7MusC9zGRZo-12" source="Bnk-OcX3R7MusC9zGRZo-26" target="Bnk-OcX3R7MusC9zGRZo-32" edge="1">
          <mxGeometry relative="1" as="geometry" />
        </mxCell>
        <mxCell id="Bnk-OcX3R7MusC9zGRZo-34" style="edgeStyle=orthogonalEdgeStyle;rounded=0;orthogonalLoop=1;jettySize=auto;html=1;exitX=0.5;exitY=1;exitDx=0;exitDy=0;entryX=1;entryY=0.5;entryDx=0;entryDy=0;" parent="Bnk-OcX3R7MusC9zGRZo-12" source="Bnk-OcX3R7MusC9zGRZo-32" target="Bnk-OcX3R7MusC9zGRZo-28" edge="1">
          <mxGeometry relative="1" as="geometry" />
        </mxCell>
        <mxCell id="Bnk-OcX3R7MusC9zGRZo-35" value="[start with template]" style="text;html=1;align=center;verticalAlign=middle;whiteSpace=wrap;rounded=0;" parent="Bnk-OcX3R7MusC9zGRZo-12" vertex="1">
          <mxGeometry x="40" y="200" width="110" height="30" as="geometry" />
        </mxCell>
        <mxCell id="Bnk-OcX3R7MusC9zGRZo-36" value="[start from scratch]" style="text;html=1;align=center;verticalAlign=middle;whiteSpace=wrap;rounded=0;" parent="Bnk-OcX3R7MusC9zGRZo-12" vertex="1">
          <mxGeometry x="250" y="200" width="110" height="30" as="geometry" />
        </mxCell>
        <mxCell id="Bnk-OcX3R7MusC9zGRZo-37" value="[Evaluate aerodynamic/stability performance]" style="text;html=1;align=center;verticalAlign=middle;whiteSpace=wrap;rounded=0;" parent="Bnk-OcX3R7MusC9zGRZo-12" vertex="1">
          <mxGeometry x="220" y="590" width="175" height="30" as="geometry" />
        </mxCell>
        <mxCell id="Bnk-OcX3R7MusC9zGRZo-38" value="[No aerodynamic analysis]" style="text;html=1;align=center;verticalAlign=middle;whiteSpace=wrap;rounded=0;" parent="Bnk-OcX3R7MusC9zGRZo-12" vertex="1">
          <mxGeometry x="30" y="640" width="155" height="30" as="geometry" />
        </mxCell>
        <mxCell id="oO4y1cDc-_9oZhUK7PBN-8" style="rounded=0;orthogonalLoop=1;jettySize=auto;html=1;exitX=0.5;exitY=1;exitDx=0;exitDy=0;entryX=0.5;entryY=0;entryDx=0;entryDy=0;" edge="1" parent="Bnk-OcX3R7MusC9zGRZo-12" target="oO4y1cDc-_9oZhUK7PBN-27">
          <mxGeometry relative="1" as="geometry">
            <mxPoint x="250.0000000000001" y="730" as="sourcePoint" />
            <mxPoint x="230" y="760" as="targetPoint" />
          </mxGeometry>
        </mxCell>
        <mxCell id="oO4y1cDc-_9oZhUK7PBN-9" value="Analyse aerodynamic performance" style="rounded=1;whiteSpace=wrap;html=1;fillColor=none;gradientColor=none;strokeColor=default;arcSize=50;" vertex="1" parent="Bnk-OcX3R7MusC9zGRZo-12">
          <mxGeometry x="220" y="670" width="120" height="60" as="geometry" />
        </mxCell>
        <mxCell id="oO4y1cDc-_9oZhUK7PBN-26" value="Change glider wing/fuselage/pilot configuration" style="rounded=1;whiteSpace=wrap;html=1;fillColor=none;gradientColor=none;strokeColor=default;arcSize=50;" vertex="1" parent="Bnk-OcX3R7MusC9zGRZo-12">
          <mxGeometry x="220" y="830" width="120" height="60" as="geometry" />
        </mxCell>
        <mxCell id="oO4y1cDc-_9oZhUK7PBN-29" style="rounded=0;orthogonalLoop=1;jettySize=auto;html=1;exitX=1;exitY=1;exitDx=0;exitDy=0;entryX=0.5;entryY=0;entryDx=0;entryDy=0;" edge="1" parent="Bnk-OcX3R7MusC9zGRZo-12" source="oO4y1cDc-_9oZhUK7PBN-27" target="oO4y1cDc-_9oZhUK7PBN-26">
          <mxGeometry relative="1" as="geometry" />
        </mxCell>
        <mxCell id="oO4y1cDc-_9oZhUK7PBN-30" style="rounded=0;orthogonalLoop=1;jettySize=auto;html=1;exitX=0;exitY=1;exitDx=0;exitDy=0;entryX=0.5;entryY=0;entryDx=0;entryDy=0;" edge="1" parent="Bnk-OcX3R7MusC9zGRZo-12" source="oO4y1cDc-_9oZhUK7PBN-27" target="oO4y1cDc-_9oZhUK7PBN-28">
          <mxGeometry relative="1" as="geometry" />
        </mxCell>
        <mxCell id="oO4y1cDc-_9oZhUK7PBN-27" value="" style="rhombus;whiteSpace=wrap;html=1;" vertex="1" parent="Bnk-OcX3R7MusC9zGRZo-12">
          <mxGeometry x="185" y="770" width="30" height="30" as="geometry" />
        </mxCell>
        <mxCell id="oO4y1cDc-_9oZhUK7PBN-34" style="rounded=0;orthogonalLoop=1;jettySize=auto;html=1;exitX=0.5;exitY=1;exitDx=0;exitDy=0;entryX=0.5;entryY=0;entryDx=0;entryDy=0;" edge="1" parent="Bnk-OcX3R7MusC9zGRZo-12" source="oO4y1cDc-_9oZhUK7PBN-28" target="oO4y1cDc-_9oZhUK7PBN-33">
          <mxGeometry relative="1" as="geometry" />
        </mxCell>
        <mxCell id="oO4y1cDc-_9oZhUK7PBN-28" value="Leave configuration as it is" style="rounded=1;whiteSpace=wrap;html=1;fillColor=none;gradientColor=none;strokeColor=default;arcSize=50;" vertex="1" parent="Bnk-OcX3R7MusC9zGRZo-12">
          <mxGeometry x="60" y="830" width="120" height="60" as="geometry" />
        </mxCell>
        <mxCell id="oO4y1cDc-_9oZhUK7PBN-31" value="[Design iteration complete]" style="text;html=1;align=center;verticalAlign=middle;whiteSpace=wrap;rounded=0;" vertex="1" parent="Bnk-OcX3R7MusC9zGRZo-12">
          <mxGeometry x="25" y="780" width="155" height="30" as="geometry" />
        </mxCell>
        <mxCell id="oO4y1cDc-_9oZhUK7PBN-32" value="[Next design iteration]" style="text;whiteSpace=wrap;html=1;" vertex="1" parent="Bnk-OcX3R7MusC9zGRZo-12">
          <mxGeometry x="230" y="780" width="180" height="40" as="geometry" />
        </mxCell>
        <mxCell id="oO4y1cDc-_9oZhUK7PBN-33" value="Generate output files" style="rounded=1;whiteSpace=wrap;html=1;fillColor=none;gradientColor=none;strokeColor=default;arcSize=50;" vertex="1" parent="Bnk-OcX3R7MusC9zGRZo-12">
          <mxGeometry x="140" y="920" width="120" height="60" as="geometry" />
        </mxCell>
        <mxCell id="Bnk-OcX3R7MusC9zGRZo-2" value="Aerodynamic analysis" style="swimlane;html=1;startSize=20;rounded=1;container=0;" parent="1" vertex="1">
          <mxGeometry x="1400" y="200" width="400" height="1040" as="geometry" />
        </mxCell>
        <mxCell id="Bnk-OcX3R7MusC9zGRZo-3" value="Initiate aerodynamic analysis" style="rounded=1;whiteSpace=wrap;html=1;fillColor=none;gradientColor=none;strokeColor=default;arcSize=50;" parent="Bnk-OcX3R7MusC9zGRZo-2" vertex="1">
          <mxGeometry x="140" y="50" width="120" height="60" as="geometry" />
        </mxCell>
        <mxCell id="Bnk-OcX3R7MusC9zGRZo-4" value="" style="edgeStyle=orthogonalEdgeStyle;rounded=0;orthogonalLoop=1;jettySize=auto;html=1;" parent="Bnk-OcX3R7MusC9zGRZo-2" source="Bnk-OcX3R7MusC9zGRZo-3" edge="1">
          <mxGeometry relative="1" as="geometry">
            <mxPoint x="200.0256410256411" y="140" as="targetPoint" />
          </mxGeometry>
        </mxCell>
        <mxCell id="oO4y1cDc-_9oZhUK7PBN-1" style="edgeStyle=orthogonalEdgeStyle;rounded=0;orthogonalLoop=1;jettySize=auto;html=1;exitX=0.5;exitY=1;exitDx=0;exitDy=0;" edge="1" parent="Bnk-OcX3R7MusC9zGRZo-2" source="Bnk-OcX3R7MusC9zGRZo-5">
          <mxGeometry relative="1" as="geometry">
            <mxPoint x="120.3809523809523" y="290" as="targetPoint" />
          </mxGeometry>
        </mxCell>
        <mxCell id="Bnk-OcX3R7MusC9zGRZo-5" value="Run Q3D" style="rounded=1;whiteSpace=wrap;html=1;fillColor=none;gradientColor=none;strokeColor=default;arcSize=50;" parent="Bnk-OcX3R7MusC9zGRZo-2" vertex="1">
          <mxGeometry x="60" y="200" width="120" height="60" as="geometry" />
        </mxCell>
        <mxCell id="oO4y1cDc-_9oZhUK7PBN-3" style="edgeStyle=orthogonalEdgeStyle;rounded=0;orthogonalLoop=1;jettySize=auto;html=1;exitX=0.5;exitY=1;exitDx=0;exitDy=0;" edge="1" parent="Bnk-OcX3R7MusC9zGRZo-2" source="Bnk-OcX3R7MusC9zGRZo-6">
          <mxGeometry relative="1" as="geometry">
            <mxPoint x="280.3809523809523" y="290" as="targetPoint" />
          </mxGeometry>
        </mxCell>
        <mxCell id="Bnk-OcX3R7MusC9zGRZo-6" value="Run AVL" style="rounded=1;whiteSpace=wrap;html=1;fillColor=none;gradientColor=none;strokeColor=default;arcSize=50;" parent="Bnk-OcX3R7MusC9zGRZo-2" vertex="1">
          <mxGeometry x="220" y="200" width="120" height="60" as="geometry" />
        </mxCell>
        <mxCell id="Bnk-OcX3R7MusC9zGRZo-7" style="rounded=0;orthogonalLoop=1;jettySize=auto;html=1;exitX=0;exitY=1;exitDx=0;exitDy=0;entryX=0.5;entryY=0;entryDx=0;entryDy=0;" parent="Bnk-OcX3R7MusC9zGRZo-2" source="Bnk-OcX3R7MusC9zGRZo-9" target="Bnk-OcX3R7MusC9zGRZo-5" edge="1">
          <mxGeometry relative="1" as="geometry" />
        </mxCell>
        <mxCell id="Bnk-OcX3R7MusC9zGRZo-8" style="rounded=0;orthogonalLoop=1;jettySize=auto;html=1;exitX=1;exitY=1;exitDx=0;exitDy=0;entryX=0.5;entryY=0;entryDx=0;entryDy=0;" parent="Bnk-OcX3R7MusC9zGRZo-2" source="Bnk-OcX3R7MusC9zGRZo-9" target="Bnk-OcX3R7MusC9zGRZo-6" edge="1">
          <mxGeometry relative="1" as="geometry" />
        </mxCell>
        <mxCell id="Bnk-OcX3R7MusC9zGRZo-9" value="" style="rhombus;whiteSpace=wrap;html=1;" parent="Bnk-OcX3R7MusC9zGRZo-2" vertex="1">
          <mxGeometry x="185" y="140" width="30" height="30" as="geometry" />
        </mxCell>
        <mxCell id="Bnk-OcX3R7MusC9zGRZo-10" value="[Viscous performance analysis]" style="text;html=1;align=center;verticalAlign=middle;whiteSpace=wrap;rounded=0;" parent="Bnk-OcX3R7MusC9zGRZo-2" vertex="1">
          <mxGeometry x="50" y="150" width="120" height="30" as="geometry" />
        </mxCell>
        <mxCell id="Bnk-OcX3R7MusC9zGRZo-11" value="[Analyse stability]" style="text;html=1;align=center;verticalAlign=middle;whiteSpace=wrap;rounded=0;" parent="Bnk-OcX3R7MusC9zGRZo-2" vertex="1">
          <mxGeometry x="230" y="150" width="150" height="30" as="geometry" />
        </mxCell>
        <mxCell id="oO4y1cDc-_9oZhUK7PBN-2" value="Aerodynamic Performance paramaters" style="rounded=1;whiteSpace=wrap;html=1;fillColor=none;gradientColor=none;strokeColor=default;arcSize=50;" vertex="1" parent="Bnk-OcX3R7MusC9zGRZo-2">
          <mxGeometry x="60" y="290" width="120" height="60" as="geometry" />
        </mxCell>
        <mxCell id="oO4y1cDc-_9oZhUK7PBN-4" value="Stability parameters" style="rounded=1;whiteSpace=wrap;html=1;fillColor=none;gradientColor=none;strokeColor=default;arcSize=50;" vertex="1" parent="Bnk-OcX3R7MusC9zGRZo-2">
          <mxGeometry x="220" y="290" width="120" height="60" as="geometry" />
        </mxCell>
        <mxCell id="Bnk-OcX3R7MusC9zGRZo-39" value="Geometry generator" style="swimlane;html=1;startSize=20;container=0;" parent="1" vertex="1">
          <mxGeometry x="600" y="200" width="400" height="1040" as="geometry" />
        </mxCell>
        <mxCell id="oO4y1cDc-_9oZhUK7PBN-11" value="Generate new glider geometry" style="rounded=1;whiteSpace=wrap;html=1;fillColor=none;gradientColor=none;strokeColor=default;arcSize=50;" vertex="1" parent="Bnk-OcX3R7MusC9zGRZo-39">
          <mxGeometry x="140" y="760" width="120" height="60" as="geometry" />
        </mxCell>
        <mxCell id="Bnk-OcX3R7MusC9zGRZo-40" value="Knowledge base" style="swimlane;html=1;startSize=20;rounded=1;container=0;" parent="1" vertex="1">
          <mxGeometry x="1000" y="200" width="400" height="1040" as="geometry" />
        </mxCell>
        <mxCell id="oO4y1cDc-_9oZhUK7PBN-18" style="edgeStyle=orthogonalEdgeStyle;rounded=0;orthogonalLoop=1;jettySize=auto;html=1;exitX=0.5;exitY=1;exitDx=0;exitDy=0;entryX=0.5;entryY=0;entryDx=0;entryDy=0;" edge="1" parent="Bnk-OcX3R7MusC9zGRZo-40" source="oO4y1cDc-_9oZhUK7PBN-14" target="oO4y1cDc-_9oZhUK7PBN-17">
          <mxGeometry relative="1" as="geometry" />
        </mxCell>
        <mxCell id="oO4y1cDc-_9oZhUK7PBN-14" value="Recompute weight and balance" style="rounded=1;whiteSpace=wrap;html=1;fillColor=none;gradientColor=none;strokeColor=default;arcSize=50;" vertex="1" parent="Bnk-OcX3R7MusC9zGRZo-40">
          <mxGeometry x="140" y="760" width="120" height="60" as="geometry" />
        </mxCell>
        <mxCell id="oO4y1cDc-_9oZhUK7PBN-16" value="Generate scissor plot" style="rounded=1;whiteSpace=wrap;html=1;fillColor=none;gradientColor=none;strokeColor=default;arcSize=50;" vertex="1" parent="Bnk-OcX3R7MusC9zGRZo-40">
          <mxGeometry x="140" y="940" width="120" height="60" as="geometry" />
        </mxCell>
        <mxCell id="oO4y1cDc-_9oZhUK7PBN-19" style="edgeStyle=orthogonalEdgeStyle;rounded=0;orthogonalLoop=1;jettySize=auto;html=1;exitX=0.5;exitY=1;exitDx=0;exitDy=0;entryX=0.5;entryY=0;entryDx=0;entryDy=0;" edge="1" parent="Bnk-OcX3R7MusC9zGRZo-40" source="oO4y1cDc-_9oZhUK7PBN-17" target="oO4y1cDc-_9oZhUK7PBN-16">
          <mxGeometry relative="1" as="geometry" />
        </mxCell>
        <mxCell id="oO4y1cDc-_9oZhUK7PBN-198" style="edgeStyle=orthogonalEdgeStyle;rounded=0;orthogonalLoop=1;jettySize=auto;html=1;exitX=0;exitY=0.5;exitDx=0;exitDy=0;endArrow=none;startFill=0;dashed=1;dashPattern=12 12;" edge="1" parent="Bnk-OcX3R7MusC9zGRZo-40" source="oO4y1cDc-_9oZhUK7PBN-17">
          <mxGeometry relative="1" as="geometry">
            <mxPoint x="-200" y="879.9473684210527" as="targetPoint" />
          </mxGeometry>
        </mxCell>
        <mxCell id="oO4y1cDc-_9oZhUK7PBN-17" value="Resize the horizontal and vertical tail" style="rounded=1;whiteSpace=wrap;html=1;fillColor=none;gradientColor=none;strokeColor=default;arcSize=50;" vertex="1" parent="Bnk-OcX3R7MusC9zGRZo-40">
          <mxGeometry x="140" y="850" width="120" height="60" as="geometry" />
        </mxCell>
        <mxCell id="Bnk-OcX3R7MusC9zGRZo-41" style="edgeStyle=orthogonalEdgeStyle;rounded=0;orthogonalLoop=1;jettySize=auto;html=1;exitX=1;exitY=0.5;exitDx=0;exitDy=0;entryX=0;entryY=0.5;entryDx=0;entryDy=0;" parent="1" source="Bnk-OcX3R7MusC9zGRZo-30" target="Bnk-OcX3R7MusC9zGRZo-3" edge="1">
          <mxGeometry relative="1" as="geometry">
            <mxPoint x="1540" y="916" as="targetPoint" />
            <Array as="points">
              <mxPoint x="1440" y="825" />
              <mxPoint x="1440" y="280" />
            </Array>
          </mxGeometry>
        </mxCell>
        <mxCell id="oO4y1cDc-_9oZhUK7PBN-5" style="edgeStyle=orthogonalEdgeStyle;rounded=0;orthogonalLoop=1;jettySize=auto;html=1;exitX=0.5;exitY=1;exitDx=0;exitDy=0;entryX=1;entryY=0.5;entryDx=0;entryDy=0;" edge="1" parent="1" source="oO4y1cDc-_9oZhUK7PBN-2" target="oO4y1cDc-_9oZhUK7PBN-9">
          <mxGeometry relative="1" as="geometry">
            <mxPoint x="850" y="970" as="targetPoint" />
          </mxGeometry>
        </mxCell>
        <mxCell id="oO4y1cDc-_9oZhUK7PBN-12" style="edgeStyle=orthogonalEdgeStyle;rounded=0;orthogonalLoop=1;jettySize=auto;html=1;entryX=0;entryY=0.5;entryDx=0;entryDy=0;exitX=1;exitY=0.5;exitDx=0;exitDy=0;" edge="1" parent="1" source="oO4y1cDc-_9oZhUK7PBN-26" target="oO4y1cDc-_9oZhUK7PBN-11">
          <mxGeometry relative="1" as="geometry">
            <mxPoint x="460" y="990" as="sourcePoint" />
          </mxGeometry>
        </mxCell>
        <mxCell id="oO4y1cDc-_9oZhUK7PBN-15" style="edgeStyle=orthogonalEdgeStyle;rounded=0;orthogonalLoop=1;jettySize=auto;html=1;exitX=1;exitY=0.5;exitDx=0;exitDy=0;entryX=0;entryY=0.5;entryDx=0;entryDy=0;" edge="1" parent="1" source="oO4y1cDc-_9oZhUK7PBN-11" target="oO4y1cDc-_9oZhUK7PBN-14">
          <mxGeometry relative="1" as="geometry" />
        </mxCell>
        <mxCell id="oO4y1cDc-_9oZhUK7PBN-20" style="edgeStyle=orthogonalEdgeStyle;rounded=0;orthogonalLoop=1;jettySize=auto;html=1;exitX=0.5;exitY=0;exitDx=0;exitDy=0;entryX=1;entryY=0.5;entryDx=0;entryDy=0;" edge="1" parent="1" source="oO4y1cDc-_9oZhUK7PBN-11" target="Bnk-OcX3R7MusC9zGRZo-6">
          <mxGeometry relative="1" as="geometry">
            <Array as="points">
              <mxPoint x="800" y="940" />
              <mxPoint x="1760" y="940" />
              <mxPoint x="1760" y="430" />
            </Array>
          </mxGeometry>
        </mxCell>
        <mxCell id="oO4y1cDc-_9oZhUK7PBN-21" style="edgeStyle=orthogonalEdgeStyle;rounded=0;orthogonalLoop=1;jettySize=auto;html=1;exitX=0.5;exitY=1;exitDx=0;exitDy=0;entryX=1;entryY=0.5;entryDx=0;entryDy=0;dashed=1;dashPattern=8 8;" edge="1" parent="1" source="oO4y1cDc-_9oZhUK7PBN-4" target="oO4y1cDc-_9oZhUK7PBN-17">
          <mxGeometry relative="1" as="geometry" />
        </mxCell>
        <mxCell id="oO4y1cDc-_9oZhUK7PBN-22" style="edgeStyle=orthogonalEdgeStyle;rounded=0;orthogonalLoop=1;jettySize=auto;html=1;exitX=0.5;exitY=1;exitDx=0;exitDy=0;entryX=1;entryY=0.5;entryDx=0;entryDy=0;dashed=1;dashPattern=12 12;" edge="1" parent="1" source="oO4y1cDc-_9oZhUK7PBN-4" target="oO4y1cDc-_9oZhUK7PBN-16">
          <mxGeometry relative="1" as="geometry" />
        </mxCell>
        <mxCell id="oO4y1cDc-_9oZhUK7PBN-24" style="edgeStyle=orthogonalEdgeStyle;rounded=0;orthogonalLoop=1;jettySize=auto;html=1;exitX=0;exitY=0.5;exitDx=0;exitDy=0;entryX=0;entryY=0.5;entryDx=0;entryDy=0;" edge="1" parent="1" source="oO4y1cDc-_9oZhUK7PBN-16" target="Bnk-OcX3R7MusC9zGRZo-28">
          <mxGeometry relative="1" as="geometry">
            <mxPoint x="460" y="1170" as="targetPoint" />
            <Array as="points">
              <mxPoint x="1080" y="1170" />
              <mxPoint x="1080" y="1200" />
              <mxPoint x="220" y="1200" />
              <mxPoint x="220" y="750" />
            </Array>
          </mxGeometry>
        </mxCell>
        <mxCell id="oO4y1cDc-_9oZhUK7PBN-188" value="" style="group" vertex="1" connectable="0" parent="1">
          <mxGeometry x="375" y="1265" width="50" height="50" as="geometry" />
        </mxCell>
        <mxCell id="oO4y1cDc-_9oZhUK7PBN-186" value="" style="ellipse;whiteSpace=wrap;html=1;rounded=0;shadow=0;comic=0;labelBackgroundColor=none;strokeWidth=1;fillColor=#000000;fontFamily=Verdana;fontSize=12;align=center;" vertex="1" parent="oO4y1cDc-_9oZhUK7PBN-188">
          <mxGeometry x="5" y="5" width="40" height="40" as="geometry" />
        </mxCell>
        <mxCell id="oO4y1cDc-_9oZhUK7PBN-187" value="" style="ellipse;whiteSpace=wrap;html=1;aspect=fixed;fillColor=none;" vertex="1" parent="oO4y1cDc-_9oZhUK7PBN-188">
          <mxGeometry width="50" height="50" as="geometry" />
        </mxCell>
        <mxCell id="oO4y1cDc-_9oZhUK7PBN-190" style="edgeStyle=orthogonalEdgeStyle;rounded=0;orthogonalLoop=1;jettySize=auto;html=1;exitX=0.5;exitY=1;exitDx=0;exitDy=0;entryX=0.5;entryY=0;entryDx=0;entryDy=0;" edge="1" parent="1" source="oO4y1cDc-_9oZhUK7PBN-33" target="oO4y1cDc-_9oZhUK7PBN-187">
          <mxGeometry relative="1" as="geometry" />
        </mxCell>
        <mxCell id="oO4y1cDc-_9oZhUK7PBN-195" style="edgeStyle=orthogonalEdgeStyle;rounded=0;orthogonalLoop=1;jettySize=auto;html=1;exitX=0;exitY=0.5;exitDx=0;exitDy=0;dashed=1;dashPattern=12 12;endArrow=none;startFill=0;" edge="1" parent="1" source="oO4y1cDc-_9oZhUK7PBN-16">
          <mxGeometry relative="1" as="geometry">
            <mxPoint x="800" y="1150" as="targetPoint" />
            <Array as="points">
              <mxPoint x="1080" y="1170" />
              <mxPoint x="1080" y="1150" />
            </Array>
          </mxGeometry>
        </mxCell>
        <mxCell id="oO4y1cDc-_9oZhUK7PBN-196" style="edgeStyle=orthogonalEdgeStyle;rounded=0;orthogonalLoop=1;jettySize=auto;html=1;exitX=0.5;exitY=1;exitDx=0;exitDy=0;entryX=1;entryY=0.5;entryDx=0;entryDy=0;dashed=1;dashPattern=12 12;" edge="1" parent="1" source="oO4y1cDc-_9oZhUK7PBN-11" target="oO4y1cDc-_9oZhUK7PBN-33">
          <mxGeometry relative="1" as="geometry" />
        </mxCell>
        <mxCell id="oO4y1cDc-_9oZhUK7PBN-199" value="&lt;span style=&quot;color: rgb(0, 0, 0); font-family: Helvetica; font-size: 12px; font-style: normal; font-variant-ligatures: normal; font-variant-caps: normal; font-weight: 400; letter-spacing: normal; orphans: 2; text-align: left; text-indent: 0px; text-transform: none; widows: 2; word-spacing: 0px; -webkit-text-stroke-width: 0px; white-space: normal; text-decoration-thickness: initial; text-decoration-style: initial; text-decoration-color: initial; float: none; display: inline !important;&quot;&gt;Close KBE app&lt;/span&gt;" style="text;whiteSpace=wrap;html=1;" vertex="1" parent="1">
          <mxGeometry x="440" y="1275" width="150" height="40" as="geometry" />
        </mxCell>
        <mxCell id="oO4y1cDc-_9oZhUK7PBN-200" style="edgeStyle=orthogonalEdgeStyle;rounded=0;orthogonalLoop=1;jettySize=auto;html=1;exitX=0.5;exitY=1;exitDx=0;exitDy=0;entryX=1;entryY=0.5;entryDx=0;entryDy=0;dashed=1;dashPattern=8 8;" edge="1" parent="1" source="oO4y1cDc-_9oZhUK7PBN-4" target="oO4y1cDc-_9oZhUK7PBN-14">
          <mxGeometry relative="1" as="geometry" />
        </mxCell>
      </root>
    </mxGraphModel>
  </diagram>
  <diagram name="Activity_diagram_internal_analysis" id="_4bcySN_xr0Wm9LLUymH">
    <mxGraphModel dx="2564" dy="1043" grid="1" gridSize="10" guides="1" tooltips="1" connect="1" arrows="1" fold="1" page="1" pageScale="1" pageWidth="827" pageHeight="1169" math="0" shadow="0">
      <root>
        <mxCell id="LFENWo8dj3xz33L2_kBm-0" />
        <mxCell id="LFENWo8dj3xz33L2_kBm-1" parent="LFENWo8dj3xz33L2_kBm-0" />
        <mxCell id="LFENWo8dj3xz33L2_kBm-2" value="Internal analysis diagram" style="swimlane;html=1;childLayout=stackLayout;startSize=20;rounded=0;shadow=0;comic=0;labelBackgroundColor=none;strokeWidth=1;fontFamily=Verdana;fontSize=12;align=center;strokeColor=none;container=0;" vertex="1" parent="LFENWo8dj3xz33L2_kBm-1">
          <mxGeometry x="200" y="180" width="1600" height="1060" as="geometry" />
        </mxCell>
        <mxCell id="LFENWo8dj3xz33L2_kBm-3" value="Weight and Balance" style="swimlane;html=1;startSize=20;container=0;" vertex="1" parent="LFENWo8dj3xz33L2_kBm-2">
          <mxGeometry y="20" width="400" height="1040" as="geometry" />
        </mxCell>
        <mxCell id="_BKx0bOpOc2x2z4p4D6N-13" style="edgeStyle=orthogonalEdgeStyle;rounded=0;orthogonalLoop=1;jettySize=auto;html=1;exitX=0.5;exitY=1;exitDx=0;exitDy=0;entryX=0.5;entryY=0;entryDx=0;entryDy=0;" edge="1" parent="LFENWo8dj3xz33L2_kBm-3" source="_BKx0bOpOc2x2z4p4D6N-0" target="_BKx0bOpOc2x2z4p4D6N-2">
          <mxGeometry relative="1" as="geometry" />
        </mxCell>
        <mxCell id="_BKx0bOpOc2x2z4p4D6N-0" value="Make list of volumes from glider parts" style="rounded=1;whiteSpace=wrap;html=1;fillColor=none;gradientColor=none;strokeColor=default;arcSize=50;" vertex="1" parent="LFENWo8dj3xz33L2_kBm-3">
          <mxGeometry x="60" y="110" width="120" height="60" as="geometry" />
        </mxCell>
        <mxCell id="_BKx0bOpOc2x2z4p4D6N-2" value="Compute structural volumes using volume fraction" style="rounded=1;whiteSpace=wrap;html=1;fillColor=none;gradientColor=none;strokeColor=default;arcSize=50;" vertex="1" parent="LFENWo8dj3xz33L2_kBm-3">
          <mxGeometry x="60" y="200" width="120" height="60" as="geometry" />
        </mxCell>
        <mxCell id="_BKx0bOpOc2x2z4p4D6N-11" style="edgeStyle=orthogonalEdgeStyle;rounded=0;orthogonalLoop=1;jettySize=auto;html=1;exitX=0.75;exitY=1;exitDx=0;exitDy=0;entryX=0.5;entryY=0;entryDx=0;entryDy=0;" edge="1" parent="LFENWo8dj3xz33L2_kBm-3" source="_BKx0bOpOc2x2z4p4D6N-6" target="_BKx0bOpOc2x2z4p4D6N-7">
          <mxGeometry relative="1" as="geometry" />
        </mxCell>
        <mxCell id="_BKx0bOpOc2x2z4p4D6N-12" style="edgeStyle=orthogonalEdgeStyle;rounded=0;orthogonalLoop=1;jettySize=auto;html=1;exitX=0.25;exitY=1;exitDx=0;exitDy=0;entryX=0.5;entryY=0;entryDx=0;entryDy=0;" edge="1" parent="LFENWo8dj3xz33L2_kBm-3" source="_BKx0bOpOc2x2z4p4D6N-6" target="_BKx0bOpOc2x2z4p4D6N-0">
          <mxGeometry relative="1" as="geometry" />
        </mxCell>
        <mxCell id="_BKx0bOpOc2x2z4p4D6N-6" value="" style="rounded=0;whiteSpace=wrap;html=1;fillColor=#000000;" vertex="1" parent="LFENWo8dj3xz33L2_kBm-3">
          <mxGeometry x="40" y="80" width="320" height="10" as="geometry" />
        </mxCell>
        <mxCell id="_BKx0bOpOc2x2z4p4D6N-23" style="edgeStyle=orthogonalEdgeStyle;rounded=0;orthogonalLoop=1;jettySize=auto;html=1;exitX=0.5;exitY=1;exitDx=0;exitDy=0;entryX=0.75;entryY=0;entryDx=0;entryDy=0;" edge="1" parent="LFENWo8dj3xz33L2_kBm-3" source="_BKx0bOpOc2x2z4p4D6N-7" target="_BKx0bOpOc2x2z4p4D6N-21">
          <mxGeometry relative="1" as="geometry" />
        </mxCell>
        <mxCell id="_BKx0bOpOc2x2z4p4D6N-7" value="Make list of center of gravity (CG) positions" style="rounded=1;whiteSpace=wrap;html=1;fillColor=none;gradientColor=none;strokeColor=default;arcSize=50;" vertex="1" parent="LFENWo8dj3xz33L2_kBm-3">
          <mxGeometry x="220" y="240" width="120" height="60" as="geometry" />
        </mxCell>
        <mxCell id="_BKx0bOpOc2x2z4p4D6N-16" value="Compute structural volumes using volume fraction" style="rounded=1;whiteSpace=wrap;html=1;fillColor=none;gradientColor=none;strokeColor=default;arcSize=50;" vertex="1" parent="LFENWo8dj3xz33L2_kBm-3">
          <mxGeometry x="60" y="290" width="120" height="60" as="geometry" />
        </mxCell>
        <mxCell id="_BKx0bOpOc2x2z4p4D6N-17" value="" style="edgeStyle=orthogonalEdgeStyle;rounded=0;orthogonalLoop=1;jettySize=auto;html=1;" edge="1" parent="LFENWo8dj3xz33L2_kBm-3" source="_BKx0bOpOc2x2z4p4D6N-2" target="_BKx0bOpOc2x2z4p4D6N-16">
          <mxGeometry relative="1" as="geometry" />
        </mxCell>
        <mxCell id="_BKx0bOpOc2x2z4p4D6N-22" style="edgeStyle=orthogonalEdgeStyle;rounded=0;orthogonalLoop=1;jettySize=auto;html=1;exitX=0.5;exitY=1;exitDx=0;exitDy=0;entryX=0.25;entryY=0;entryDx=0;entryDy=0;" edge="1" parent="LFENWo8dj3xz33L2_kBm-3" source="_BKx0bOpOc2x2z4p4D6N-19" target="_BKx0bOpOc2x2z4p4D6N-21">
          <mxGeometry relative="1" as="geometry" />
        </mxCell>
        <mxCell id="_BKx0bOpOc2x2z4p4D6N-26" style="edgeStyle=orthogonalEdgeStyle;rounded=0;orthogonalLoop=1;jettySize=auto;html=1;exitX=0;exitY=0.5;exitDx=0;exitDy=0;" edge="1" parent="LFENWo8dj3xz33L2_kBm-3" source="_BKx0bOpOc2x2z4p4D6N-19">
          <mxGeometry relative="1" as="geometry">
            <mxPoint x="-60" y="409.66666666666674" as="targetPoint" />
          </mxGeometry>
        </mxCell>
        <mxCell id="_BKx0bOpOc2x2z4p4D6N-19" value="Compute mass of each part" style="rounded=1;whiteSpace=wrap;html=1;fillColor=none;gradientColor=none;strokeColor=default;arcSize=50;" vertex="1" parent="LFENWo8dj3xz33L2_kBm-3">
          <mxGeometry x="60" y="380" width="120" height="60" as="geometry" />
        </mxCell>
        <mxCell id="_BKx0bOpOc2x2z4p4D6N-20" value="" style="edgeStyle=orthogonalEdgeStyle;rounded=0;orthogonalLoop=1;jettySize=auto;html=1;" edge="1" parent="LFENWo8dj3xz33L2_kBm-3" source="_BKx0bOpOc2x2z4p4D6N-16" target="_BKx0bOpOc2x2z4p4D6N-19">
          <mxGeometry relative="1" as="geometry" />
        </mxCell>
        <mxCell id="_BKx0bOpOc2x2z4p4D6N-25" style="edgeStyle=orthogonalEdgeStyle;rounded=0;orthogonalLoop=1;jettySize=auto;html=1;exitX=0.5;exitY=1;exitDx=0;exitDy=0;entryX=0.5;entryY=0;entryDx=0;entryDy=0;" edge="1" parent="LFENWo8dj3xz33L2_kBm-3" source="_BKx0bOpOc2x2z4p4D6N-21" target="_BKx0bOpOc2x2z4p4D6N-24">
          <mxGeometry relative="1" as="geometry" />
        </mxCell>
        <mxCell id="_BKx0bOpOc2x2z4p4D6N-21" value="" style="rounded=0;whiteSpace=wrap;html=1;fillColor=#000000;" vertex="1" parent="LFENWo8dj3xz33L2_kBm-3">
          <mxGeometry x="40" y="460" width="320" height="10" as="geometry" />
        </mxCell>
        <mxCell id="_BKx0bOpOc2x2z4p4D6N-24" value="Compute moments of each part" style="rounded=1;whiteSpace=wrap;html=1;fillColor=none;gradientColor=none;strokeColor=default;arcSize=50;" vertex="1" parent="LFENWo8dj3xz33L2_kBm-3">
          <mxGeometry x="140" y="500" width="120" height="60" as="geometry" />
        </mxCell>
        <mxCell id="_BKx0bOpOc2x2z4p4D6N-29" value="Compute actual/fwd/bwd glider center of gravity positions" style="rounded=1;whiteSpace=wrap;html=1;fillColor=none;gradientColor=none;strokeColor=default;arcSize=50;" vertex="1" parent="LFENWo8dj3xz33L2_kBm-3">
          <mxGeometry x="140" y="590" width="120" height="60" as="geometry" />
        </mxCell>
        <mxCell id="_BKx0bOpOc2x2z4p4D6N-30" value="" style="edgeStyle=orthogonalEdgeStyle;rounded=0;orthogonalLoop=1;jettySize=auto;html=1;" edge="1" parent="LFENWo8dj3xz33L2_kBm-3" source="_BKx0bOpOc2x2z4p4D6N-24" target="_BKx0bOpOc2x2z4p4D6N-29">
          <mxGeometry relative="1" as="geometry" />
        </mxCell>
        <mxCell id="LFENWo8dj3xz33L2_kBm-55" value="Scissor plot" style="swimlane;html=1;startSize=20;container=0;" vertex="1" parent="LFENWo8dj3xz33L2_kBm-2">
          <mxGeometry x="400" y="20" width="400" height="1040" as="geometry" />
        </mxCell>
        <mxCell id="_BKx0bOpOc2x2z4p4D6N-58" style="edgeStyle=orthogonalEdgeStyle;rounded=0;orthogonalLoop=1;jettySize=auto;html=1;exitX=0.5;exitY=1;exitDx=0;exitDy=0;entryX=0.5;entryY=0;entryDx=0;entryDy=0;" edge="1" parent="LFENWo8dj3xz33L2_kBm-55" source="_BKx0bOpOc2x2z4p4D6N-33" target="_BKx0bOpOc2x2z4p4D6N-44">
          <mxGeometry relative="1" as="geometry" />
        </mxCell>
        <mxCell id="_BKx0bOpOc2x2z4p4D6N-33" value="Transform absolute CG positions to relative LEMAC&amp;nbsp;" style="rounded=1;whiteSpace=wrap;html=1;fillColor=none;gradientColor=none;strokeColor=default;arcSize=50;" vertex="1" parent="LFENWo8dj3xz33L2_kBm-55">
          <mxGeometry x="145" y="590" width="120" height="60" as="geometry" />
        </mxCell>
        <mxCell id="_BKx0bOpOc2x2z4p4D6N-40" value="Compute stability&lt;span style=&quot;background-color: transparent; color: light-dark(rgb(0, 0, 0), rgb(255, 255, 255));&quot;&gt;&amp;nbsp;&lt;/span&gt;&lt;div&gt;&lt;span style=&quot;background-color: transparent; color: light-dark(rgb(0, 0, 0), rgb(255, 255, 255));&quot;&gt;limit&lt;/span&gt;&lt;/div&gt;" style="rounded=1;whiteSpace=wrap;html=1;fillColor=none;gradientColor=none;strokeColor=default;arcSize=50;" vertex="1" parent="LFENWo8dj3xz33L2_kBm-55">
          <mxGeometry x="65" y="720" width="120" height="60" as="geometry" />
        </mxCell>
        <mxCell id="_BKx0bOpOc2x2z4p4D6N-42" style="edgeStyle=orthogonalEdgeStyle;rounded=0;orthogonalLoop=1;jettySize=auto;html=1;exitX=0.75;exitY=1;exitDx=0;exitDy=0;entryX=0.5;entryY=0;entryDx=0;entryDy=0;" edge="1" parent="LFENWo8dj3xz33L2_kBm-55" source="_BKx0bOpOc2x2z4p4D6N-44" target="_BKx0bOpOc2x2z4p4D6N-46">
          <mxGeometry relative="1" as="geometry" />
        </mxCell>
        <mxCell id="_BKx0bOpOc2x2z4p4D6N-43" style="edgeStyle=orthogonalEdgeStyle;rounded=0;orthogonalLoop=1;jettySize=auto;html=1;exitX=0.25;exitY=1;exitDx=0;exitDy=0;entryX=0.5;entryY=0;entryDx=0;entryDy=0;" edge="1" parent="LFENWo8dj3xz33L2_kBm-55" source="_BKx0bOpOc2x2z4p4D6N-44" target="_BKx0bOpOc2x2z4p4D6N-40">
          <mxGeometry relative="1" as="geometry" />
        </mxCell>
        <mxCell id="_BKx0bOpOc2x2z4p4D6N-44" value="" style="rounded=0;whiteSpace=wrap;html=1;fillColor=#000000;" vertex="1" parent="LFENWo8dj3xz33L2_kBm-55">
          <mxGeometry x="45" y="680" width="320" height="10" as="geometry" />
        </mxCell>
        <mxCell id="_BKx0bOpOc2x2z4p4D6N-46" value="Compute controlability limit" style="rounded=1;whiteSpace=wrap;html=1;fillColor=none;gradientColor=none;strokeColor=default;arcSize=50;" vertex="1" parent="LFENWo8dj3xz33L2_kBm-55">
          <mxGeometry x="225" y="720" width="120" height="60" as="geometry" />
        </mxCell>
        <mxCell id="_BKx0bOpOc2x2z4p4D6N-53" value="" style="rounded=0;whiteSpace=wrap;html=1;fillColor=#000000;" vertex="1" parent="LFENWo8dj3xz33L2_kBm-55">
          <mxGeometry x="35" y="810" width="320" height="10" as="geometry" />
        </mxCell>
        <mxCell id="_BKx0bOpOc2x2z4p4D6N-55" style="edgeStyle=orthogonalEdgeStyle;rounded=0;orthogonalLoop=1;jettySize=auto;html=1;exitX=0.5;exitY=1;exitDx=0;exitDy=0;entryX=0.779;entryY=-0.113;entryDx=0;entryDy=0;entryPerimeter=0;" edge="1" parent="LFENWo8dj3xz33L2_kBm-55" source="_BKx0bOpOc2x2z4p4D6N-46" target="_BKx0bOpOc2x2z4p4D6N-53">
          <mxGeometry relative="1" as="geometry" />
        </mxCell>
        <mxCell id="_BKx0bOpOc2x2z4p4D6N-57" style="edgeStyle=orthogonalEdgeStyle;rounded=0;orthogonalLoop=1;jettySize=auto;html=1;exitX=0.5;exitY=1;exitDx=0;exitDy=0;entryX=0.283;entryY=0;entryDx=0;entryDy=0;entryPerimeter=0;" edge="1" parent="LFENWo8dj3xz33L2_kBm-55" source="_BKx0bOpOc2x2z4p4D6N-40" target="_BKx0bOpOc2x2z4p4D6N-53">
          <mxGeometry relative="1" as="geometry" />
        </mxCell>
        <mxCell id="_BKx0bOpOc2x2z4p4D6N-59" style="edgeStyle=orthogonalEdgeStyle;rounded=0;orthogonalLoop=1;jettySize=auto;html=1;exitX=0.5;exitY=1;exitDx=0;exitDy=0;entryX=0.5;entryY=0;entryDx=0;entryDy=0;" edge="1" parent="LFENWo8dj3xz33L2_kBm-55" target="_BKx0bOpOc2x2z4p4D6N-60">
          <mxGeometry relative="1" as="geometry">
            <mxPoint x="205" y="820" as="sourcePoint" />
          </mxGeometry>
        </mxCell>
        <mxCell id="_BKx0bOpOc2x2z4p4D6N-60" value="Generate scissor plot" style="rounded=1;whiteSpace=wrap;html=1;fillColor=none;gradientColor=none;strokeColor=default;arcSize=50;" vertex="1" parent="LFENWo8dj3xz33L2_kBm-55">
          <mxGeometry x="145" y="850" width="120" height="60" as="geometry" />
        </mxCell>
        <mxCell id="4tM8UFQgeoCObqeohcZU-33" value="&lt;span style=&quot;background-color: light-dark(#ffffff, var(--ge-dark-color, #121212));&quot;&gt;&lt;font style=&quot;color: rgb(0, 0, 0);&quot;&gt;-CL_Max_estimate&lt;/font&gt;&lt;/span&gt;&lt;div&gt;&lt;font style=&quot;color: rgb(0, 0, 0);&quot;&gt;-&lt;span&gt;&lt;span style=&quot;font-family: &amp;quot;JetBrains Mono&amp;quot;, monospace; color: rgb(188, 190, 196);&quot;&gt;CL_h = -&lt;/span&gt;&lt;span style=&quot;font-family: &amp;quot;JetBrains Mono&amp;quot;, monospace; color: rgb(42, 172, 184);&quot;&gt;0.35&lt;/span&gt;&lt;span style=&quot;font-family: &amp;quot;JetBrains Mono&amp;quot;, monospace; color: rgb(188, 190, 196);&quot;&gt;*&lt;/span&gt;&lt;span style=&quot;font-family: &amp;quot;JetBrains Mono&amp;quot;, monospace; color: rgb(148, 85, 141);&quot;&gt;self&lt;/span&gt;&lt;span style=&quot;font-family: &amp;quot;JetBrains Mono&amp;quot;, monospace; color: rgb(188, 190, 196);&quot;&gt;.hor_tail_aspect_ratio**(&lt;/span&gt;&lt;span style=&quot;font-family: &amp;quot;JetBrains Mono&amp;quot;, monospace; color: rgb(42, 172, 184);&quot;&gt;1&lt;/span&gt;&lt;span style=&quot;font-family: &amp;quot;JetBrains Mono&amp;quot;, monospace; color: rgb(188, 190, 196);&quot;&gt;/&lt;/span&gt;&lt;span style=&quot;font-family: &amp;quot;JetBrains Mono&amp;quot;, monospace; color: rgb(42, 172, 184);&quot;&gt;3&lt;/span&gt;&lt;span style=&quot;font-family: &amp;quot;JetBrains Mono&amp;quot;, monospace; color: rgb(188, 190, 196);&quot;&gt;)&lt;br&gt;-hor_tail length&lt;/span&gt;&lt;/span&gt;&lt;/font&gt;&lt;/div&gt;" style="rounded=0;whiteSpace=wrap;html=1;fillColor=none;" vertex="1" parent="LFENWo8dj3xz33L2_kBm-55">
          <mxGeometry x="45" y="110" width="320" height="60" as="geometry" />
        </mxCell>
        <mxCell id="_BKx0bOpOc2x2z4p4D6N-37" style="edgeStyle=orthogonalEdgeStyle;rounded=0;orthogonalLoop=1;jettySize=auto;html=1;exitX=1;exitY=0.5;exitDx=0;exitDy=0;entryX=0;entryY=0.5;entryDx=0;entryDy=0;dashed=1;dashPattern=12 12;" edge="1" parent="LFENWo8dj3xz33L2_kBm-2" source="_BKx0bOpOc2x2z4p4D6N-29" target="_BKx0bOpOc2x2z4p4D6N-33">
          <mxGeometry relative="1" as="geometry">
            <Array as="points">
              <mxPoint x="480" y="640" />
              <mxPoint x="480" y="640" />
            </Array>
          </mxGeometry>
        </mxCell>
        <mxCell id="LFENWo8dj3xz33L2_kBm-41" value="Aerodynamic analysis" style="swimlane;html=1;startSize=20;rounded=1;container=0;" vertex="1" parent="LFENWo8dj3xz33L2_kBm-1">
          <mxGeometry x="1400" y="200" width="400" height="1040" as="geometry" />
        </mxCell>
        <mxCell id="_BKx0bOpOc2x2z4p4D6N-66" value="Run AVL" style="rounded=1;whiteSpace=wrap;html=1;fillColor=none;gradientColor=none;strokeColor=default;arcSize=50;" vertex="1" parent="LFENWo8dj3xz33L2_kBm-41">
          <mxGeometry x="140" y="80" width="120" height="60" as="geometry" />
        </mxCell>
        <mxCell id="4tM8UFQgeoCObqeohcZU-19" style="edgeStyle=orthogonalEdgeStyle;rounded=0;orthogonalLoop=1;jettySize=auto;html=1;exitX=0.5;exitY=1;exitDx=0;exitDy=0;entryX=1;entryY=0.5;entryDx=0;entryDy=0;" edge="1" parent="LFENWo8dj3xz33L2_kBm-41" target="4tM8UFQgeoCObqeohcZU-25">
          <mxGeometry relative="1" as="geometry">
            <mxPoint x="200" y="140" as="sourcePoint" />
            <Array as="points">
              <mxPoint x="200" y="200" />
            </Array>
          </mxGeometry>
        </mxCell>
        <mxCell id="4tM8UFQgeoCObqeohcZU-20" style="edgeStyle=orthogonalEdgeStyle;rounded=0;orthogonalLoop=1;jettySize=auto;html=1;exitX=0.5;exitY=1;exitDx=0;exitDy=0;entryX=1;entryY=0.5;entryDx=0;entryDy=0;" edge="1" parent="LFENWo8dj3xz33L2_kBm-41" target="4tM8UFQgeoCObqeohcZU-26">
          <mxGeometry relative="1" as="geometry">
            <mxPoint x="200" y="140" as="sourcePoint" />
            <Array as="points">
              <mxPoint x="200" y="290" />
            </Array>
          </mxGeometry>
        </mxCell>
        <mxCell id="4tM8UFQgeoCObqeohcZU-21" style="edgeStyle=orthogonalEdgeStyle;rounded=0;orthogonalLoop=1;jettySize=auto;html=1;exitX=0.5;exitY=1;exitDx=0;exitDy=0;entryX=1;entryY=0.5;entryDx=0;entryDy=0;" edge="1" parent="LFENWo8dj3xz33L2_kBm-41" target="4tM8UFQgeoCObqeohcZU-27">
          <mxGeometry relative="1" as="geometry">
            <mxPoint x="200" y="140" as="sourcePoint" />
            <Array as="points">
              <mxPoint x="200" y="380" />
            </Array>
          </mxGeometry>
        </mxCell>
        <mxCell id="4tM8UFQgeoCObqeohcZU-22" style="edgeStyle=orthogonalEdgeStyle;rounded=0;orthogonalLoop=1;jettySize=auto;html=1;exitX=0.5;exitY=1;exitDx=0;exitDy=0;entryX=1;entryY=0.5;entryDx=0;entryDy=0;" edge="1" parent="LFENWo8dj3xz33L2_kBm-41" target="4tM8UFQgeoCObqeohcZU-28">
          <mxGeometry relative="1" as="geometry">
            <mxPoint x="200" y="140" as="sourcePoint" />
            <Array as="points">
              <mxPoint x="200" y="470" />
            </Array>
          </mxGeometry>
        </mxCell>
        <mxCell id="4tM8UFQgeoCObqeohcZU-25" value="X_loc neutral point" style="rounded=1;whiteSpace=wrap;html=1;fillColor=none;gradientColor=none;strokeColor=default;arcSize=50;" vertex="1" parent="LFENWo8dj3xz33L2_kBm-41">
          <mxGeometry x="60" y="170" width="120" height="60" as="geometry" />
        </mxCell>
        <mxCell id="4tM8UFQgeoCObqeohcZU-37" style="edgeStyle=orthogonalEdgeStyle;rounded=0;orthogonalLoop=1;jettySize=auto;html=1;endArrow=none;startFill=0;" edge="1" parent="LFENWo8dj3xz33L2_kBm-41" source="4tM8UFQgeoCObqeohcZU-26">
          <mxGeometry relative="1" as="geometry">
            <mxPoint x="-40" y="200" as="targetPoint" />
          </mxGeometry>
        </mxCell>
        <mxCell id="4tM8UFQgeoCObqeohcZU-26" value="Cm_ac" style="rounded=1;whiteSpace=wrap;html=1;fillColor=none;gradientColor=none;strokeColor=default;arcSize=50;" vertex="1" parent="LFENWo8dj3xz33L2_kBm-41">
          <mxGeometry x="60" y="260" width="120" height="60" as="geometry" />
        </mxCell>
        <mxCell id="4tM8UFQgeoCObqeohcZU-38" style="edgeStyle=orthogonalEdgeStyle;rounded=0;orthogonalLoop=1;jettySize=auto;html=1;exitX=0;exitY=0.5;exitDx=0;exitDy=0;endArrow=none;startFill=0;" edge="1" parent="LFENWo8dj3xz33L2_kBm-41" source="4tM8UFQgeoCObqeohcZU-27">
          <mxGeometry relative="1" as="geometry">
            <mxPoint x="-40" y="290" as="targetPoint" />
          </mxGeometry>
        </mxCell>
        <mxCell id="4tM8UFQgeoCObqeohcZU-27" value="dcl_da_tail" style="rounded=1;whiteSpace=wrap;html=1;fillColor=none;gradientColor=none;strokeColor=default;arcSize=50;" vertex="1" parent="LFENWo8dj3xz33L2_kBm-41">
          <mxGeometry x="60" y="350" width="120" height="60" as="geometry" />
        </mxCell>
        <mxCell id="4tM8UFQgeoCObqeohcZU-39" style="edgeStyle=orthogonalEdgeStyle;rounded=0;orthogonalLoop=1;jettySize=auto;html=1;endArrow=none;startFill=0;" edge="1" parent="LFENWo8dj3xz33L2_kBm-41" source="4tM8UFQgeoCObqeohcZU-28">
          <mxGeometry relative="1" as="geometry">
            <mxPoint x="-40" y="380" as="targetPoint" />
          </mxGeometry>
        </mxCell>
        <mxCell id="4tM8UFQgeoCObqeohcZU-28" value="dcl_da_wing" style="rounded=1;whiteSpace=wrap;html=1;fillColor=none;gradientColor=none;strokeColor=default;arcSize=50;" vertex="1" parent="LFENWo8dj3xz33L2_kBm-41">
          <mxGeometry x="60" y="440" width="120" height="60" as="geometry" />
        </mxCell>
        <mxCell id="LFENWo8dj3xz33L2_kBm-57" value="Size tail" style="swimlane;html=1;startSize=20;rounded=1;container=0;" vertex="1" parent="LFENWo8dj3xz33L2_kBm-1">
          <mxGeometry x="1000" y="200" width="400" height="1040" as="geometry" />
        </mxCell>
        <mxCell id="_BKx0bOpOc2x2z4p4D6N-64" style="edgeStyle=orthogonalEdgeStyle;rounded=0;orthogonalLoop=1;jettySize=auto;html=1;exitX=0.5;exitY=1;exitDx=0;exitDy=0;" edge="1" parent="LFENWo8dj3xz33L2_kBm-57" source="_BKx0bOpOc2x2z4p4D6N-63">
          <mxGeometry relative="1" as="geometry">
            <mxPoint x="200.04347826086996" y="260" as="targetPoint" />
          </mxGeometry>
        </mxCell>
        <mxCell id="_BKx0bOpOc2x2z4p4D6N-63" value="Transform absolute CG positions to relative LEMAC&amp;nbsp;" style="rounded=1;whiteSpace=wrap;html=1;fillColor=none;gradientColor=none;strokeColor=default;arcSize=50;" vertex="1" parent="LFENWo8dj3xz33L2_kBm-57">
          <mxGeometry x="140" y="170" width="120" height="60" as="geometry" />
        </mxCell>
        <mxCell id="_BKx0bOpOc2x2z4p4D6N-65" value="Compute required horizontal tail size" style="rounded=1;whiteSpace=wrap;html=1;fillColor=none;gradientColor=none;strokeColor=default;arcSize=50;" vertex="1" parent="LFENWo8dj3xz33L2_kBm-57">
          <mxGeometry x="140" y="260" width="120" height="60" as="geometry" />
        </mxCell>
        <mxCell id="4tM8UFQgeoCObqeohcZU-41" value="User specified altitude" style="rounded=0;whiteSpace=wrap;html=1;fillColor=none;" vertex="1" parent="LFENWo8dj3xz33L2_kBm-57">
          <mxGeometry x="20" y="100" width="120" height="60" as="geometry" />
        </mxCell>
        <mxCell id="LFENWo8dj3xz33L2_kBm-72" value="" style="group" vertex="1" connectable="0" parent="LFENWo8dj3xz33L2_kBm-1">
          <mxGeometry x="980" y="1270" width="50" height="50" as="geometry" />
        </mxCell>
        <mxCell id="LFENWo8dj3xz33L2_kBm-73" value="" style="ellipse;whiteSpace=wrap;html=1;rounded=0;shadow=0;comic=0;labelBackgroundColor=none;strokeWidth=1;fillColor=#000000;fontFamily=Verdana;fontSize=12;align=center;" vertex="1" parent="LFENWo8dj3xz33L2_kBm-72">
          <mxGeometry x="5" y="5" width="40" height="40" as="geometry" />
        </mxCell>
        <mxCell id="LFENWo8dj3xz33L2_kBm-74" value="" style="ellipse;whiteSpace=wrap;html=1;aspect=fixed;fillColor=none;" vertex="1" parent="LFENWo8dj3xz33L2_kBm-72">
          <mxGeometry width="50" height="50" as="geometry" />
        </mxCell>
        <mxCell id="LFENWo8dj3xz33L2_kBm-78" value="&lt;span style=&quot;color: rgb(0, 0, 0); font-family: Helvetica; font-size: 12px; font-style: normal; font-variant-ligatures: normal; font-variant-caps: normal; font-weight: 400; letter-spacing: normal; orphans: 2; text-align: left; text-indent: 0px; text-transform: none; widows: 2; word-spacing: 0px; -webkit-text-stroke-width: 0px; white-space: normal; text-decoration-thickness: initial; text-decoration-style: initial; text-decoration-color: initial; float: none; display: inline !important;&quot;&gt;Exit internal analysis&lt;/span&gt;" style="text;whiteSpace=wrap;html=1;" vertex="1" parent="LFENWo8dj3xz33L2_kBm-1">
          <mxGeometry x="1045" y="1280" width="150" height="40" as="geometry" />
        </mxCell>
        <mxCell id="_BKx0bOpOc2x2z4p4D6N-8" style="edgeStyle=orthogonalEdgeStyle;rounded=0;orthogonalLoop=1;jettySize=auto;html=1;exitX=1;exitY=0.5;exitDx=0;exitDy=0;entryX=0.5;entryY=0;entryDx=0;entryDy=0;" edge="1" parent="LFENWo8dj3xz33L2_kBm-1" source="ZF9FJwlcPTDDG5vaQ5VE-0" target="_BKx0bOpOc2x2z4p4D6N-6">
          <mxGeometry relative="1" as="geometry" />
        </mxCell>
        <mxCell id="_BKx0bOpOc2x2z4p4D6N-67" style="edgeStyle=orthogonalEdgeStyle;rounded=0;orthogonalLoop=1;jettySize=auto;html=1;entryX=0.5;entryY=0;entryDx=0;entryDy=0;" edge="1" parent="LFENWo8dj3xz33L2_kBm-1" source="ZF9FJwlcPTDDG5vaQ5VE-0" target="_BKx0bOpOc2x2z4p4D6N-66">
          <mxGeometry relative="1" as="geometry" />
        </mxCell>
        <mxCell id="ZF9FJwlcPTDDG5vaQ5VE-0" value="" style="ellipse;whiteSpace=wrap;html=1;rounded=0;shadow=0;comic=0;labelBackgroundColor=none;strokeWidth=1;fillColor=#000000;fontFamily=Verdana;fontSize=12;align=center;" vertex="1" parent="LFENWo8dj3xz33L2_kBm-1">
          <mxGeometry x="80" y="240" width="40" height="40" as="geometry" />
        </mxCell>
        <mxCell id="VnSv6rK_ofryFq2NWI2J-0" value="Change glider wing/fuselage/pilot configuration" style="rounded=1;whiteSpace=wrap;html=1;fillColor=none;gradientColor=none;strokeColor=default;arcSize=50;" vertex="1" parent="LFENWo8dj3xz33L2_kBm-1">
          <mxGeometry x="-220" y="230" width="120" height="60" as="geometry" />
        </mxCell>
        <mxCell id="VnSv6rK_ofryFq2NWI2J-4" style="edgeStyle=orthogonalEdgeStyle;rounded=0;orthogonalLoop=1;jettySize=auto;html=1;exitX=1;exitY=0.5;exitDx=0;exitDy=0;entryX=0;entryY=0.5;entryDx=0;entryDy=0;" edge="1" parent="LFENWo8dj3xz33L2_kBm-1" source="VnSv6rK_ofryFq2NWI2J-2" target="ZF9FJwlcPTDDG5vaQ5VE-0">
          <mxGeometry relative="1" as="geometry" />
        </mxCell>
        <mxCell id="VnSv6rK_ofryFq2NWI2J-2" value="Generate new glider geometry" style="rounded=1;whiteSpace=wrap;html=1;fillColor=none;gradientColor=none;strokeColor=default;arcSize=50;" vertex="1" parent="LFENWo8dj3xz33L2_kBm-1">
          <mxGeometry x="-70" y="230" width="120" height="60" as="geometry" />
        </mxCell>
        <mxCell id="VnSv6rK_ofryFq2NWI2J-3" style="edgeStyle=orthogonalEdgeStyle;rounded=0;orthogonalLoop=1;jettySize=auto;html=1;entryX=0;entryY=0.5;entryDx=0;entryDy=0;exitX=1;exitY=0.5;exitDx=0;exitDy=0;" edge="1" parent="LFENWo8dj3xz33L2_kBm-1" source="VnSv6rK_ofryFq2NWI2J-0" target="VnSv6rK_ofryFq2NWI2J-2">
          <mxGeometry relative="1" as="geometry">
            <mxPoint x="-350" y="260" as="sourcePoint" />
          </mxGeometry>
        </mxCell>
        <mxCell id="VnSv6rK_ofryFq2NWI2J-7" value="" style="rounded=0;whiteSpace=wrap;html=1;noLabel=1;fillColor=none;" vertex="1" parent="LFENWo8dj3xz33L2_kBm-1">
          <mxGeometry x="-230" y="220" width="290" height="80" as="geometry" />
        </mxCell>
        <mxCell id="dPTQszRc758dGqdw3Cb9-0" value="&lt;span&gt;&lt;span style=&quot;color: rgb(0, 0, 0); font-family: Helvetica; font-size: 12px; font-style: normal; font-variant-ligatures: normal; font-variant-caps: normal; font-weight: 400; letter-spacing: normal; orphans: 2; text-align: left; text-indent: 0px; text-transform: none; widows: 2; word-spacing: 0px; -webkit-text-stroke-width: 0px; white-space: normal; text-decoration-thickness: initial; text-decoration-style: initial; text-decoration-color: initial; float: none; display: inline !important; background-color: rgb(236, 236, 236);&quot;&gt;[&lt;/span&gt;&lt;span style=&quot;color: rgb(0, 0, 0); font-family: Helvetica; font-size: 12px; font-style: normal; font-variant-ligatures: normal; font-variant-caps: normal; font-weight: 400; letter-spacing: normal; orphans: 2; text-align: left; text-indent: 0px; text-transform: none; widows: 2; word-spacing: 0px; -webkit-text-stroke-width: 0px; white-space: normal; text-decoration-thickness: initial; text-decoration-style: initial; text-decoration-color: initial; float: none; display: inline !important;&quot;&gt;From user diagram&lt;/span&gt;&lt;span style=&quot;color: rgb(0, 0, 0); font-family: Helvetica; font-size: 12px; font-style: normal; font-variant-ligatures: normal; font-variant-caps: normal; font-weight: 400; letter-spacing: normal; orphans: 2; text-align: left; text-indent: 0px; text-transform: none; widows: 2; word-spacing: 0px; -webkit-text-stroke-width: 0px; white-space: normal; text-decoration-thickness: initial; text-decoration-style: initial; text-decoration-color: initial; float: none; display: inline !important; background-color: rgb(236, 236, 236);&quot;&gt;]&lt;/span&gt;&lt;/span&gt;" style="text;whiteSpace=wrap;html=1;" vertex="1" parent="LFENWo8dj3xz33L2_kBm-1">
          <mxGeometry x="-145" y="190" width="120" height="40" as="geometry" />
        </mxCell>
        <mxCell id="_BKx0bOpOc2x2z4p4D6N-18" style="edgeStyle=orthogonalEdgeStyle;rounded=0;orthogonalLoop=1;jettySize=auto;html=1;exitX=1;exitY=0.5;exitDx=0;exitDy=0;entryX=0;entryY=0.5;entryDx=0;entryDy=0;dashed=1;dashPattern=8 8;" edge="1" parent="LFENWo8dj3xz33L2_kBm-1" source="_BKx0bOpOc2x2z4p4D6N-14" target="_BKx0bOpOc2x2z4p4D6N-16">
          <mxGeometry relative="1" as="geometry" />
        </mxCell>
        <mxCell id="_BKx0bOpOc2x2z4p4D6N-14" value="Glider material data (CFRP/GFRP)" style="rounded=0;whiteSpace=wrap;html=1;fillColor=none;" vertex="1" parent="LFENWo8dj3xz33L2_kBm-1">
          <mxGeometry x="20" y="490" width="120" height="60" as="geometry" />
        </mxCell>
        <mxCell id="_BKx0bOpOc2x2z4p4D6N-27" value="Glider empty mass" style="rounded=1;whiteSpace=wrap;html=1;fillColor=none;gradientColor=none;strokeColor=default;arcSize=50;" vertex="1" parent="LFENWo8dj3xz33L2_kBm-1">
          <mxGeometry x="20" y="580" width="120" height="60" as="geometry" />
        </mxCell>
        <mxCell id="_BKx0bOpOc2x2z4p4D6N-31" style="edgeStyle=orthogonalEdgeStyle;rounded=0;orthogonalLoop=1;jettySize=auto;html=1;exitX=1;exitY=0.5;exitDx=0;exitDy=0;entryX=0;entryY=0.5;entryDx=0;entryDy=0;dashed=1;dashPattern=8 8;" edge="1" parent="LFENWo8dj3xz33L2_kBm-1" source="_BKx0bOpOc2x2z4p4D6N-32" target="_BKx0bOpOc2x2z4p4D6N-29">
          <mxGeometry relative="1" as="geometry">
            <mxPoint x="270" y="820" as="targetPoint" />
          </mxGeometry>
        </mxCell>
        <mxCell id="_BKx0bOpOc2x2z4p4D6N-32" value="-Pilot mass (min/avg/max)&lt;div&gt;-Pilot center of gravity&lt;/div&gt;" style="rounded=0;whiteSpace=wrap;html=1;fillColor=none;" vertex="1" parent="LFENWo8dj3xz33L2_kBm-1">
          <mxGeometry x="30" y="790" width="120" height="60" as="geometry" />
        </mxCell>
        <mxCell id="_BKx0bOpOc2x2z4p4D6N-35" value="&lt;span&gt;&lt;span style=&quot;color: rgb(0, 0, 0); font-family: Helvetica; font-size: 12px; font-style: normal; font-variant-ligatures: normal; font-variant-caps: normal; font-weight: 400; letter-spacing: normal; orphans: 2; text-align: left; text-indent: 0px; text-transform: none; widows: 2; word-spacing: 0px; -webkit-text-stroke-width: 0px; white-space: normal; text-decoration-thickness: initial; text-decoration-style: initial; text-decoration-color: initial; float: none; display: inline !important; background-color: rgb(236, 236, 236);&quot;&gt;[&lt;/span&gt;&lt;span style=&quot;color: rgb(0, 0, 0); font-family: Helvetica; font-size: 12px; font-style: normal; font-variant-ligatures: normal; font-variant-caps: normal; font-weight: 400; letter-spacing: normal; orphans: 2; text-align: left; text-indent: 0px; text-transform: none; widows: 2; word-spacing: 0px; -webkit-text-stroke-width: 0px; white-space: normal; text-decoration-thickness: initial; text-decoration-style: initial; text-decoration-color: initial; float: none; display: inline !important;&quot;&gt;Starts internal anlysis&lt;/span&gt;&lt;span style=&quot;color: rgb(0, 0, 0); font-family: Helvetica; font-size: 12px; font-style: normal; font-variant-ligatures: normal; font-variant-caps: normal; font-weight: 400; letter-spacing: normal; orphans: 2; text-align: left; text-indent: 0px; text-transform: none; widows: 2; word-spacing: 0px; -webkit-text-stroke-width: 0px; white-space: normal; text-decoration-thickness: initial; text-decoration-style: initial; text-decoration-color: initial; float: none; display: inline !important; background-color: rgb(236, 236, 236);&quot;&gt;]&lt;/span&gt;&lt;/span&gt;" style="text;whiteSpace=wrap;html=1;" vertex="1" parent="LFENWo8dj3xz33L2_kBm-1">
          <mxGeometry x="70" y="220" width="140" height="40" as="geometry" />
        </mxCell>
        <mxCell id="_BKx0bOpOc2x2z4p4D6N-68" value="ISA" style="swimlane;html=1;startSize=20;rounded=1;container=0;" vertex="1" parent="LFENWo8dj3xz33L2_kBm-1">
          <mxGeometry x="1800" y="200" width="400" height="1040" as="geometry" />
        </mxCell>
        <mxCell id="_BKx0bOpOc2x2z4p4D6N-81" style="edgeStyle=orthogonalEdgeStyle;rounded=0;orthogonalLoop=1;jettySize=auto;html=1;exitX=0.5;exitY=1;exitDx=0;exitDy=0;entryX=0;entryY=0.5;entryDx=0;entryDy=0;" edge="1" parent="_BKx0bOpOc2x2z4p4D6N-68" source="_BKx0bOpOc2x2z4p4D6N-69" target="_BKx0bOpOc2x2z4p4D6N-73">
          <mxGeometry relative="1" as="geometry" />
        </mxCell>
        <mxCell id="_BKx0bOpOc2x2z4p4D6N-82" style="edgeStyle=orthogonalEdgeStyle;rounded=0;orthogonalLoop=1;jettySize=auto;html=1;exitX=0.5;exitY=1;exitDx=0;exitDy=0;entryX=0;entryY=0.5;entryDx=0;entryDy=0;" edge="1" parent="_BKx0bOpOc2x2z4p4D6N-68" source="_BKx0bOpOc2x2z4p4D6N-69" target="_BKx0bOpOc2x2z4p4D6N-75">
          <mxGeometry relative="1" as="geometry" />
        </mxCell>
        <mxCell id="_BKx0bOpOc2x2z4p4D6N-83" style="edgeStyle=orthogonalEdgeStyle;rounded=0;orthogonalLoop=1;jettySize=auto;html=1;exitX=0.5;exitY=1;exitDx=0;exitDy=0;entryX=0;entryY=0.5;entryDx=0;entryDy=0;" edge="1" parent="_BKx0bOpOc2x2z4p4D6N-68" source="_BKx0bOpOc2x2z4p4D6N-69" target="_BKx0bOpOc2x2z4p4D6N-74">
          <mxGeometry relative="1" as="geometry" />
        </mxCell>
        <mxCell id="_BKx0bOpOc2x2z4p4D6N-84" style="edgeStyle=orthogonalEdgeStyle;rounded=0;orthogonalLoop=1;jettySize=auto;html=1;exitX=0.5;exitY=1;exitDx=0;exitDy=0;entryX=0;entryY=0.5;entryDx=0;entryDy=0;" edge="1" parent="_BKx0bOpOc2x2z4p4D6N-68" source="_BKx0bOpOc2x2z4p4D6N-69" target="_BKx0bOpOc2x2z4p4D6N-76">
          <mxGeometry relative="1" as="geometry" />
        </mxCell>
        <mxCell id="_BKx0bOpOc2x2z4p4D6N-85" style="edgeStyle=orthogonalEdgeStyle;rounded=0;orthogonalLoop=1;jettySize=auto;html=1;exitX=0.5;exitY=1;exitDx=0;exitDy=0;entryX=0;entryY=0.5;entryDx=0;entryDy=0;" edge="1" parent="_BKx0bOpOc2x2z4p4D6N-68" source="_BKx0bOpOc2x2z4p4D6N-69" target="_BKx0bOpOc2x2z4p4D6N-78">
          <mxGeometry relative="1" as="geometry" />
        </mxCell>
        <mxCell id="_BKx0bOpOc2x2z4p4D6N-86" style="edgeStyle=orthogonalEdgeStyle;rounded=0;orthogonalLoop=1;jettySize=auto;html=1;exitX=0.5;exitY=1;exitDx=0;exitDy=0;entryX=0;entryY=0.5;entryDx=0;entryDy=0;" edge="1" parent="_BKx0bOpOc2x2z4p4D6N-68" source="_BKx0bOpOc2x2z4p4D6N-69" target="_BKx0bOpOc2x2z4p4D6N-77">
          <mxGeometry relative="1" as="geometry" />
        </mxCell>
        <mxCell id="_BKx0bOpOc2x2z4p4D6N-69" value="Compute atmospheric parameters" style="rounded=1;whiteSpace=wrap;html=1;fillColor=none;gradientColor=none;strokeColor=default;arcSize=50;" vertex="1" parent="_BKx0bOpOc2x2z4p4D6N-68">
          <mxGeometry x="140" y="80" width="120" height="60" as="geometry" />
        </mxCell>
        <mxCell id="_BKx0bOpOc2x2z4p4D6N-73" value="Temperature" style="rounded=1;whiteSpace=wrap;html=1;fillColor=none;gradientColor=none;strokeColor=default;arcSize=50;" vertex="1" parent="_BKx0bOpOc2x2z4p4D6N-68">
          <mxGeometry x="220" y="170" width="120" height="60" as="geometry" />
        </mxCell>
        <mxCell id="_BKx0bOpOc2x2z4p4D6N-75" value="Density" style="rounded=1;whiteSpace=wrap;html=1;fillColor=none;gradientColor=none;strokeColor=default;arcSize=50;" vertex="1" parent="_BKx0bOpOc2x2z4p4D6N-68">
          <mxGeometry x="220" y="260" width="120" height="60" as="geometry" />
        </mxCell>
        <mxCell id="_BKx0bOpOc2x2z4p4D6N-74" value="Pressure" style="rounded=1;whiteSpace=wrap;html=1;fillColor=none;gradientColor=none;strokeColor=default;arcSize=50;" vertex="1" parent="_BKx0bOpOc2x2z4p4D6N-68">
          <mxGeometry x="220" y="350" width="120" height="60" as="geometry" />
        </mxCell>
        <mxCell id="_BKx0bOpOc2x2z4p4D6N-76" value="Speed of sound" style="rounded=1;whiteSpace=wrap;html=1;fillColor=none;gradientColor=none;strokeColor=default;arcSize=50;" vertex="1" parent="_BKx0bOpOc2x2z4p4D6N-68">
          <mxGeometry x="220" y="440" width="120" height="60" as="geometry" />
        </mxCell>
        <mxCell id="_BKx0bOpOc2x2z4p4D6N-78" value="Dynamic viscosity" style="rounded=1;whiteSpace=wrap;html=1;fillColor=none;gradientColor=none;strokeColor=default;arcSize=50;" vertex="1" parent="_BKx0bOpOc2x2z4p4D6N-68">
          <mxGeometry x="220" y="530" width="120" height="60" as="geometry" />
        </mxCell>
        <mxCell id="_BKx0bOpOc2x2z4p4D6N-77" value="Kinematic viscosity" style="rounded=1;whiteSpace=wrap;html=1;fillColor=none;gradientColor=none;strokeColor=default;arcSize=50;" vertex="1" parent="_BKx0bOpOc2x2z4p4D6N-68">
          <mxGeometry x="220" y="620" width="120" height="60" as="geometry" />
        </mxCell>
        <mxCell id="_BKx0bOpOc2x2z4p4D6N-72" style="edgeStyle=orthogonalEdgeStyle;rounded=0;orthogonalLoop=1;jettySize=auto;html=1;exitX=0;exitY=0.5;exitDx=0;exitDy=0;entryX=1;entryY=0.5;entryDx=0;entryDy=0;" edge="1" parent="LFENWo8dj3xz33L2_kBm-1" source="_BKx0bOpOc2x2z4p4D6N-71" target="_BKx0bOpOc2x2z4p4D6N-69">
          <mxGeometry relative="1" as="geometry" />
        </mxCell>
        <mxCell id="_BKx0bOpOc2x2z4p4D6N-71" value="User specified altitude" style="rounded=0;whiteSpace=wrap;html=1;fillColor=none;" vertex="1" parent="LFENWo8dj3xz33L2_kBm-1">
          <mxGeometry x="2280" y="280" width="120" height="60" as="geometry" />
        </mxCell>
        <mxCell id="4tM8UFQgeoCObqeohcZU-36" style="edgeStyle=orthogonalEdgeStyle;rounded=0;orthogonalLoop=1;jettySize=auto;html=1;entryX=1;entryY=0.5;entryDx=0;entryDy=0;" edge="1" parent="LFENWo8dj3xz33L2_kBm-1" source="4tM8UFQgeoCObqeohcZU-25" target="_BKx0bOpOc2x2z4p4D6N-63">
          <mxGeometry relative="1" as="geometry" />
        </mxCell>
        <mxCell id="4tM8UFQgeoCObqeohcZU-40" style="edgeStyle=orthogonalEdgeStyle;rounded=0;orthogonalLoop=1;jettySize=auto;html=1;entryX=1;entryY=0.5;entryDx=0;entryDy=0;dashed=1;dashPattern=12 12;" edge="1" parent="LFENWo8dj3xz33L2_kBm-1" source="_BKx0bOpOc2x2z4p4D6N-69" target="_BKx0bOpOc2x2z4p4D6N-66">
          <mxGeometry relative="1" as="geometry" />
        </mxCell>
      </root>
    </mxGraphModel>
  </diagram>
</mxfile>
